<mxfile host="www.draw.io" modified="2019-11-14T14:59:27.963Z" agent="Mozilla/5.0 (Windows NT 10.0; Win64; x64) AppleWebKit/537.36 (KHTML, like Gecko) Chrome/74.0.3729.131 Safari/537.36" etag="P1bpfv8hJ1qQjUHbwRU4" version="12.2.6" type="github" pages="1">
  <diagram id="hTnQboyederP554LiAXn" name="第 1 页">
    <mxGraphModel dx="1408" dy="758" grid="0" gridSize="10" guides="1" tooltips="1" connect="1" arrows="1" fold="1" page="1" pageScale="1" pageWidth="4681" pageHeight="3300" math="0" shadow="0">
      <root>
        <mxCell id="0"/>
        <mxCell id="1" parent="0"/>
        <mxCell id="3j5tgYm17wL_fTvZgQFr-371" value="" style="whiteSpace=wrap;html=1;aspect=fixed;fillColor=none;" vertex="1" parent="1">
          <mxGeometry x="3140" y="863" width="209" height="209" as="geometry"/>
        </mxCell>
        <mxCell id="3j5tgYm17wL_fTvZgQFr-178" value="" style="whiteSpace=wrap;html=1;aspect=fixed;fillColor=none;" vertex="1" parent="1">
          <mxGeometry x="1173" y="876" width="209" height="209" as="geometry"/>
        </mxCell>
        <mxCell id="3j5tgYm17wL_fTvZgQFr-146" value="" style="whiteSpace=wrap;html=1;aspect=fixed;fillColor=none;" vertex="1" parent="1">
          <mxGeometry x="431" y="1547.5" width="352" height="352" as="geometry"/>
        </mxCell>
        <mxCell id="3j5tgYm17wL_fTvZgQFr-145" value="" style="whiteSpace=wrap;html=1;aspect=fixed;fillColor=none;" vertex="1" parent="1">
          <mxGeometry x="39" y="1547.5" width="352" height="352" as="geometry"/>
        </mxCell>
        <mxCell id="3j5tgYm17wL_fTvZgQFr-51" value="" style="whiteSpace=wrap;html=1;aspect=fixed;fillColor=none;" vertex="1" parent="1">
          <mxGeometry x="391" y="871" width="209" height="209" as="geometry"/>
        </mxCell>
        <mxCell id="3j5tgYm17wL_fTvZgQFr-1" value="30" style="ellipse;whiteSpace=wrap;html=1;fillColor=#FF9999;" vertex="1" parent="1">
          <mxGeometry x="590" y="140" width="50" height="50" as="geometry"/>
        </mxCell>
        <mxCell id="3j5tgYm17wL_fTvZgQFr-2" value="" style="endArrow=none;html=1;exitX=1;exitY=0;exitDx=0;exitDy=0;entryX=0;entryY=1;entryDx=0;entryDy=0;" edge="1" parent="1" source="3j5tgYm17wL_fTvZgQFr-3" target="3j5tgYm17wL_fTvZgQFr-1">
          <mxGeometry width="50" height="50" relative="1" as="geometry">
            <mxPoint x="500" y="390" as="sourcePoint"/>
            <mxPoint x="577" y="293" as="targetPoint"/>
          </mxGeometry>
        </mxCell>
        <mxCell id="3j5tgYm17wL_fTvZgQFr-3" value="20" style="ellipse;whiteSpace=wrap;html=1;fillColor=#FF9999;" vertex="1" parent="1">
          <mxGeometry x="460" y="325" width="50" height="50" as="geometry"/>
        </mxCell>
        <mxCell id="3j5tgYm17wL_fTvZgQFr-4" value="" style="endArrow=none;html=1;exitX=0;exitY=0;exitDx=0;exitDy=0;entryX=1;entryY=1;entryDx=0;entryDy=0;" edge="1" parent="1" source="3j5tgYm17wL_fTvZgQFr-5" target="3j5tgYm17wL_fTvZgQFr-1">
          <mxGeometry width="50" height="50" relative="1" as="geometry">
            <mxPoint x="730" y="408.5" as="sourcePoint"/>
            <mxPoint x="807" y="311.5" as="targetPoint"/>
          </mxGeometry>
        </mxCell>
        <mxCell id="3j5tgYm17wL_fTvZgQFr-5" value="40" style="ellipse;whiteSpace=wrap;html=1;fillColor=#FF9999;" vertex="1" parent="1">
          <mxGeometry x="720" y="325" width="50" height="50" as="geometry"/>
        </mxCell>
        <mxCell id="3j5tgYm17wL_fTvZgQFr-7" value="" style="endArrow=none;html=1;exitX=1;exitY=0;exitDx=0;exitDy=0;entryX=0;entryY=1;entryDx=0;entryDy=0;" edge="1" parent="1" source="3j5tgYm17wL_fTvZgQFr-8" target="3j5tgYm17wL_fTvZgQFr-3">
          <mxGeometry width="50" height="50" relative="1" as="geometry">
            <mxPoint x="400" y="497.5" as="sourcePoint"/>
            <mxPoint x="477" y="400.5" as="targetPoint"/>
          </mxGeometry>
        </mxCell>
        <mxCell id="3j5tgYm17wL_fTvZgQFr-8" value="1" style="ellipse;whiteSpace=wrap;html=1;fillColor=#FF9999;" vertex="1" parent="1">
          <mxGeometry x="330" y="490" width="50" height="50" as="geometry"/>
        </mxCell>
        <mxCell id="3j5tgYm17wL_fTvZgQFr-9" value="" style="endArrow=none;html=1;entryX=1;entryY=1;entryDx=0;entryDy=0;exitX=0.34;exitY=-0.04;exitDx=0;exitDy=0;exitPerimeter=0;" edge="1" parent="1" source="3j5tgYm17wL_fTvZgQFr-10" target="3j5tgYm17wL_fTvZgQFr-3">
          <mxGeometry width="50" height="50" relative="1" as="geometry">
            <mxPoint x="570" y="497" as="sourcePoint"/>
            <mxPoint x="512.6776695296637" y="400.1776695296637" as="targetPoint"/>
          </mxGeometry>
        </mxCell>
        <mxCell id="3j5tgYm17wL_fTvZgQFr-10" value="25" style="ellipse;whiteSpace=wrap;html=1;fillColor=#FF9999;" vertex="1" parent="1">
          <mxGeometry x="550" y="490" width="50" height="50" as="geometry"/>
        </mxCell>
        <mxCell id="3j5tgYm17wL_fTvZgQFr-12" value="" style="endArrow=none;html=1;entryX=0;entryY=1;entryDx=0;entryDy=0;exitX=0.64;exitY=0;exitDx=0;exitDy=0;exitPerimeter=0;" edge="1" parent="1" source="3j5tgYm17wL_fTvZgQFr-13" target="3j5tgYm17wL_fTvZgQFr-5">
          <mxGeometry width="50" height="50" relative="1" as="geometry">
            <mxPoint x="660" y="497" as="sourcePoint"/>
            <mxPoint x="717" y="363" as="targetPoint"/>
          </mxGeometry>
        </mxCell>
        <mxCell id="3j5tgYm17wL_fTvZgQFr-13" value="35" style="ellipse;whiteSpace=wrap;html=1;fillColor=#FF9999;" vertex="1" parent="1">
          <mxGeometry x="630" y="490" width="50" height="50" as="geometry"/>
        </mxCell>
        <mxCell id="3j5tgYm17wL_fTvZgQFr-14" value="" style="endArrow=none;html=1;entryX=1;entryY=1;entryDx=0;entryDy=0;" edge="1" parent="1" source="3j5tgYm17wL_fTvZgQFr-15" target="3j5tgYm17wL_fTvZgQFr-5">
          <mxGeometry width="50" height="50" relative="1" as="geometry">
            <mxPoint x="920" y="516" as="sourcePoint"/>
            <mxPoint x="782.677669529664" y="412.67766952966394" as="targetPoint"/>
          </mxGeometry>
        </mxCell>
        <mxCell id="3j5tgYm17wL_fTvZgQFr-15" value="50" style="ellipse;whiteSpace=wrap;html=1;fillColor=#FF9999;" vertex="1" parent="1">
          <mxGeometry x="840" y="490" width="50" height="50" as="geometry"/>
        </mxCell>
        <mxCell id="3j5tgYm17wL_fTvZgQFr-17" value="30" style="ellipse;whiteSpace=wrap;html=1;fillColor=#33FF33;" vertex="1" parent="1">
          <mxGeometry x="934.5" y="895" width="50" height="50" as="geometry"/>
        </mxCell>
        <mxCell id="3j5tgYm17wL_fTvZgQFr-18" value="" style="endArrow=none;html=1;exitX=1;exitY=0;exitDx=0;exitDy=0;entryX=0;entryY=1;entryDx=0;entryDy=0;" edge="1" parent="1" source="3j5tgYm17wL_fTvZgQFr-19" target="3j5tgYm17wL_fTvZgQFr-17">
          <mxGeometry width="50" height="50" relative="1" as="geometry">
            <mxPoint x="927.5" y="992" as="sourcePoint"/>
            <mxPoint x="1004.5" y="895" as="targetPoint"/>
          </mxGeometry>
        </mxCell>
        <mxCell id="3j5tgYm17wL_fTvZgQFr-19" value="20" style="ellipse;whiteSpace=wrap;html=1;fillColor=#FF9999;" vertex="1" parent="1">
          <mxGeometry x="862.5" y="950.5" width="50" height="50" as="geometry"/>
        </mxCell>
        <mxCell id="3j5tgYm17wL_fTvZgQFr-22" value="" style="endArrow=none;html=1;entryX=0;entryY=1;entryDx=0;entryDy=0;" edge="1" parent="1" target="3j5tgYm17wL_fTvZgQFr-19">
          <mxGeometry width="50" height="50" relative="1" as="geometry">
            <mxPoint x="837.5" y="1029" as="sourcePoint"/>
            <mxPoint x="904.5" y="1002.5" as="targetPoint"/>
          </mxGeometry>
        </mxCell>
        <mxCell id="3j5tgYm17wL_fTvZgQFr-23" value="1" style="ellipse;whiteSpace=wrap;html=1;fillColor=#FF9999;" vertex="1" parent="1">
          <mxGeometry x="802.5" y="1022" width="50" height="50" as="geometry"/>
        </mxCell>
        <mxCell id="3j5tgYm17wL_fTvZgQFr-30" value="&lt;b&gt;2&lt;/b&gt;" style="text;html=1;strokeColor=none;fillColor=none;align=center;verticalAlign=middle;whiteSpace=wrap;rounded=0;" vertex="1" parent="1">
          <mxGeometry x="906.5" y="885" width="40" height="20" as="geometry"/>
        </mxCell>
        <mxCell id="3j5tgYm17wL_fTvZgQFr-31" value="1" style="text;html=1;strokeColor=none;fillColor=none;align=center;verticalAlign=middle;whiteSpace=wrap;rounded=0;fontStyle=1" vertex="1" parent="1">
          <mxGeometry x="827.5" y="955.5" width="40" height="20" as="geometry"/>
        </mxCell>
        <mxCell id="3j5tgYm17wL_fTvZgQFr-32" value="0" style="text;html=1;strokeColor=none;fillColor=none;align=center;verticalAlign=middle;whiteSpace=wrap;rounded=0;fontStyle=1" vertex="1" parent="1">
          <mxGeometry x="787.5" y="1002" width="40" height="20" as="geometry"/>
        </mxCell>
        <mxCell id="3j5tgYm17wL_fTvZgQFr-33" value="30" style="ellipse;whiteSpace=wrap;html=1;fillColor=#FF9999;" vertex="1" parent="1">
          <mxGeometry x="529" y="920" width="50" height="50" as="geometry"/>
        </mxCell>
        <mxCell id="3j5tgYm17wL_fTvZgQFr-34" value="" style="endArrow=none;html=1;exitX=1;exitY=0;exitDx=0;exitDy=0;entryX=0;entryY=1;entryDx=0;entryDy=0;" edge="1" parent="1" source="3j5tgYm17wL_fTvZgQFr-35" target="3j5tgYm17wL_fTvZgQFr-33">
          <mxGeometry width="50" height="50" relative="1" as="geometry">
            <mxPoint x="446" y="1102" as="sourcePoint"/>
            <mxPoint x="523" y="1005" as="targetPoint"/>
          </mxGeometry>
        </mxCell>
        <mxCell id="3j5tgYm17wL_fTvZgQFr-35" value="20" style="ellipse;whiteSpace=wrap;html=1;fillColor=#FF9999;" vertex="1" parent="1">
          <mxGeometry x="426" y="1017" width="50" height="50" as="geometry"/>
        </mxCell>
        <mxCell id="3j5tgYm17wL_fTvZgQFr-36" value="&lt;b&gt;1&lt;/b&gt;" style="text;html=1;strokeColor=none;fillColor=none;align=center;verticalAlign=middle;whiteSpace=wrap;rounded=0;" vertex="1" parent="1">
          <mxGeometry x="501" y="910" width="40" height="20" as="geometry"/>
        </mxCell>
        <mxCell id="3j5tgYm17wL_fTvZgQFr-37" value="0" style="text;html=1;strokeColor=none;fillColor=none;align=center;verticalAlign=middle;whiteSpace=wrap;rounded=0;fontStyle=1" vertex="1" parent="1">
          <mxGeometry x="391" y="1022" width="40" height="20" as="geometry"/>
        </mxCell>
        <mxCell id="3j5tgYm17wL_fTvZgQFr-38" value="1" style="ellipse;whiteSpace=wrap;html=1;fillColor=#FF9999;" vertex="1" parent="1">
          <mxGeometry x="426" y="904.5" width="50" height="50" as="geometry"/>
        </mxCell>
        <mxCell id="3j5tgYm17wL_fTvZgQFr-39" value="30" style="ellipse;whiteSpace=wrap;html=1;fillColor=#FF9999;" vertex="1" parent="1">
          <mxGeometry x="138" y="917" width="50" height="50" as="geometry"/>
        </mxCell>
        <mxCell id="3j5tgYm17wL_fTvZgQFr-40" value="" style="endArrow=none;html=1;exitX=1;exitY=0;exitDx=0;exitDy=0;entryX=0;entryY=1;entryDx=0;entryDy=0;" edge="1" parent="1" source="3j5tgYm17wL_fTvZgQFr-41" target="3j5tgYm17wL_fTvZgQFr-39">
          <mxGeometry width="50" height="50" relative="1" as="geometry">
            <mxPoint x="55" y="1099" as="sourcePoint"/>
            <mxPoint x="132" y="1002" as="targetPoint"/>
          </mxGeometry>
        </mxCell>
        <mxCell id="3j5tgYm17wL_fTvZgQFr-41" value="20" style="ellipse;whiteSpace=wrap;html=1;fillColor=#FF9999;" vertex="1" parent="1">
          <mxGeometry x="35" y="1014" width="50" height="50" as="geometry"/>
        </mxCell>
        <mxCell id="3j5tgYm17wL_fTvZgQFr-42" value="&lt;b&gt;1&lt;/b&gt;" style="text;html=1;strokeColor=none;fillColor=none;align=center;verticalAlign=middle;whiteSpace=wrap;rounded=0;" vertex="1" parent="1">
          <mxGeometry x="110" y="907" width="40" height="20" as="geometry"/>
        </mxCell>
        <mxCell id="3j5tgYm17wL_fTvZgQFr-43" value="0" style="text;html=1;strokeColor=none;fillColor=none;align=center;verticalAlign=middle;whiteSpace=wrap;rounded=0;fontStyle=1" vertex="1" parent="1">
          <mxGeometry y="1024" width="40" height="20" as="geometry"/>
        </mxCell>
        <mxCell id="3j5tgYm17wL_fTvZgQFr-46" value="" style="shape=singleArrow;whiteSpace=wrap;html=1;fillColor=#66FFFF;" vertex="1" parent="1">
          <mxGeometry x="244" y="986" width="136" height="28" as="geometry"/>
        </mxCell>
        <mxCell id="3j5tgYm17wL_fTvZgQFr-47" value="向树中插入节点1" style="text;html=1;strokeColor=none;fillColor=none;align=center;verticalAlign=middle;whiteSpace=wrap;rounded=0;fontStyle=1" vertex="1" parent="1">
          <mxGeometry x="250" y="969.5" width="95" height="6" as="geometry"/>
        </mxCell>
        <mxCell id="3j5tgYm17wL_fTvZgQFr-48" value="" style="shape=singleArrow;whiteSpace=wrap;html=1;fillColor=#66FFFF;" vertex="1" parent="1">
          <mxGeometry x="630" y="972.5" width="136" height="28" as="geometry"/>
        </mxCell>
        <mxCell id="3j5tgYm17wL_fTvZgQFr-49" value="引起节点30的平衡因子变成了2" style="text;html=1;strokeColor=none;fillColor=none;align=center;verticalAlign=middle;whiteSpace=wrap;rounded=0;fontStyle=1" vertex="1" parent="1">
          <mxGeometry x="637" y="939.5" width="100" height="41" as="geometry"/>
        </mxCell>
        <mxCell id="3j5tgYm17wL_fTvZgQFr-50" value="" style="whiteSpace=wrap;html=1;aspect=fixed;fillColor=none;" vertex="1" parent="1">
          <mxGeometry x="10" y="871" width="209" height="209" as="geometry"/>
        </mxCell>
        <mxCell id="3j5tgYm17wL_fTvZgQFr-54" value="" style="whiteSpace=wrap;html=1;aspect=fixed;fillColor=none;" vertex="1" parent="1">
          <mxGeometry x="783" y="871" width="209" height="209" as="geometry"/>
        </mxCell>
        <mxCell id="3j5tgYm17wL_fTvZgQFr-55" value="Y" style="ellipse;whiteSpace=wrap;html=1;fillColor=#33FF33;" vertex="1" parent="1">
          <mxGeometry x="231.5" y="1169" width="50" height="50" as="geometry"/>
        </mxCell>
        <mxCell id="3j5tgYm17wL_fTvZgQFr-56" value="" style="endArrow=none;html=1;exitX=1;exitY=0;exitDx=0;exitDy=0;entryX=0;entryY=1;entryDx=0;entryDy=0;" edge="1" parent="1" source="3j5tgYm17wL_fTvZgQFr-57" target="3j5tgYm17wL_fTvZgQFr-55">
          <mxGeometry width="50" height="50" relative="1" as="geometry">
            <mxPoint x="224.5" y="1292" as="sourcePoint"/>
            <mxPoint x="301.5" y="1195" as="targetPoint"/>
          </mxGeometry>
        </mxCell>
        <mxCell id="3j5tgYm17wL_fTvZgQFr-57" value="X" style="ellipse;whiteSpace=wrap;html=1;fillColor=#FF9999;" vertex="1" parent="1">
          <mxGeometry x="159.5" y="1250.5" width="50" height="50" as="geometry"/>
        </mxCell>
        <mxCell id="3j5tgYm17wL_fTvZgQFr-58" value="" style="endArrow=none;html=1;entryX=0;entryY=1;entryDx=0;entryDy=0;" edge="1" parent="1" target="3j5tgYm17wL_fTvZgQFr-57">
          <mxGeometry width="50" height="50" relative="1" as="geometry">
            <mxPoint x="134.5" y="1329" as="sourcePoint"/>
            <mxPoint x="201.5" y="1302.5" as="targetPoint"/>
          </mxGeometry>
        </mxCell>
        <mxCell id="3j5tgYm17wL_fTvZgQFr-59" value="Z" style="ellipse;whiteSpace=wrap;html=1;fillColor=#FF9999;" vertex="1" parent="1">
          <mxGeometry x="103" y="1322" width="50" height="50" as="geometry"/>
        </mxCell>
        <mxCell id="3j5tgYm17wL_fTvZgQFr-64" value="" style="triangle;whiteSpace=wrap;html=1;fillColor=#FFFF66;rotation=-90;strokeColor=#6c8ebf;" vertex="1" parent="1">
          <mxGeometry x="53" y="1418.5" width="50" height="50" as="geometry"/>
        </mxCell>
        <mxCell id="3j5tgYm17wL_fTvZgQFr-65" value="T1" style="text;html=1;strokeColor=none;fillColor=none;align=center;verticalAlign=middle;whiteSpace=wrap;rounded=0;strokeWidth=1;" vertex="1" parent="1">
          <mxGeometry x="66.5" y="1438.5" width="23" height="18" as="geometry"/>
        </mxCell>
        <mxCell id="3j5tgYm17wL_fTvZgQFr-71" value="" style="triangle;whiteSpace=wrap;html=1;fillColor=#FFFF66;rotation=-90;strokeColor=#6c8ebf;" vertex="1" parent="1">
          <mxGeometry x="150" y="1413.5" width="50" height="50" as="geometry"/>
        </mxCell>
        <mxCell id="3j5tgYm17wL_fTvZgQFr-72" value="T2" style="text;html=1;strokeColor=none;fillColor=none;align=center;verticalAlign=middle;whiteSpace=wrap;rounded=0;strokeWidth=1;" vertex="1" parent="1">
          <mxGeometry x="163.5" y="1433.5" width="23" height="18" as="geometry"/>
        </mxCell>
        <mxCell id="3j5tgYm17wL_fTvZgQFr-73" value="" style="triangle;whiteSpace=wrap;html=1;fillColor=#FFFF66;rotation=-90;strokeColor=#6c8ebf;" vertex="1" parent="1">
          <mxGeometry x="206.5" y="1322" width="50" height="50" as="geometry"/>
        </mxCell>
        <mxCell id="3j5tgYm17wL_fTvZgQFr-74" value="T3" style="text;html=1;strokeColor=none;fillColor=none;align=center;verticalAlign=middle;whiteSpace=wrap;rounded=0;strokeWidth=1;" vertex="1" parent="1">
          <mxGeometry x="220" y="1342" width="23" height="18" as="geometry"/>
        </mxCell>
        <mxCell id="3j5tgYm17wL_fTvZgQFr-75" value="" style="triangle;whiteSpace=wrap;html=1;fillColor=#FFFF66;rotation=-90;strokeColor=#6c8ebf;" vertex="1" parent="1">
          <mxGeometry x="287" y="1245.5" width="50" height="50" as="geometry"/>
        </mxCell>
        <mxCell id="3j5tgYm17wL_fTvZgQFr-76" value="T4" style="text;html=1;strokeColor=none;fillColor=none;align=center;verticalAlign=middle;whiteSpace=wrap;rounded=0;strokeWidth=1;" vertex="1" parent="1">
          <mxGeometry x="300.5" y="1265.5" width="23" height="18" as="geometry"/>
        </mxCell>
        <mxCell id="3j5tgYm17wL_fTvZgQFr-78" value="" style="endArrow=none;html=1;exitX=1;exitY=1;exitDx=0;exitDy=0;entryX=0.74;entryY=0.4;entryDx=0;entryDy=0;entryPerimeter=0;" edge="1" parent="1" source="3j5tgYm17wL_fTvZgQFr-55" target="3j5tgYm17wL_fTvZgQFr-75">
          <mxGeometry width="50" height="50" relative="1" as="geometry">
            <mxPoint x="291.5" y="1238" as="sourcePoint"/>
            <mxPoint x="341.5" y="1188" as="targetPoint"/>
          </mxGeometry>
        </mxCell>
        <mxCell id="3j5tgYm17wL_fTvZgQFr-80" value="" style="endArrow=none;html=1;exitX=1;exitY=1;exitDx=0;exitDy=0;entryX=0.76;entryY=0.39;entryDx=0;entryDy=0;entryPerimeter=0;" edge="1" parent="1" source="3j5tgYm17wL_fTvZgQFr-57" target="3j5tgYm17wL_fTvZgQFr-73">
          <mxGeometry width="50" height="50" relative="1" as="geometry">
            <mxPoint x="284.1776695296637" y="1247.6776695296637" as="sourcePoint"/>
            <mxPoint x="327.5" y="1263.5" as="targetPoint"/>
          </mxGeometry>
        </mxCell>
        <mxCell id="3j5tgYm17wL_fTvZgQFr-81" value="" style="endArrow=none;html=1;exitX=1;exitY=0.5;exitDx=0;exitDy=0;entryX=0.34;entryY=0.98;entryDx=0;entryDy=0;entryPerimeter=0;" edge="1" parent="1" source="3j5tgYm17wL_fTvZgQFr-64" target="3j5tgYm17wL_fTvZgQFr-59">
          <mxGeometry width="50" height="50" relative="1" as="geometry">
            <mxPoint x="144.5" y="1339" as="sourcePoint"/>
            <mxPoint x="113" y="1366" as="targetPoint"/>
          </mxGeometry>
        </mxCell>
        <mxCell id="3j5tgYm17wL_fTvZgQFr-82" value="" style="endArrow=none;html=1;exitX=0.68;exitY=1;exitDx=0;exitDy=0;entryX=1;entryY=0.5;entryDx=0;entryDy=0;exitPerimeter=0;" edge="1" parent="1" source="3j5tgYm17wL_fTvZgQFr-59" target="3j5tgYm17wL_fTvZgQFr-71">
          <mxGeometry width="50" height="50" relative="1" as="geometry">
            <mxPoint x="212.17766952966372" y="1303.177669529664" as="sourcePoint"/>
            <mxPoint x="236" y="1344" as="targetPoint"/>
          </mxGeometry>
        </mxCell>
        <mxCell id="3j5tgYm17wL_fTvZgQFr-84" value="Y" style="ellipse;whiteSpace=wrap;html=1;fillColor=#33FF33;" vertex="1" parent="1">
          <mxGeometry x="614.5" y="1169" width="50" height="50" as="geometry"/>
        </mxCell>
        <mxCell id="3j5tgYm17wL_fTvZgQFr-85" value="" style="endArrow=none;html=1;exitX=1;exitY=0;exitDx=0;exitDy=0;entryX=0;entryY=1;entryDx=0;entryDy=0;" edge="1" parent="1" source="3j5tgYm17wL_fTvZgQFr-86" target="3j5tgYm17wL_fTvZgQFr-84">
          <mxGeometry width="50" height="50" relative="1" as="geometry">
            <mxPoint x="607.5" y="1292" as="sourcePoint"/>
            <mxPoint x="684.5" y="1195" as="targetPoint"/>
          </mxGeometry>
        </mxCell>
        <mxCell id="3j5tgYm17wL_fTvZgQFr-86" value="X" style="ellipse;whiteSpace=wrap;html=1;fillColor=#FF9999;" vertex="1" parent="1">
          <mxGeometry x="542.5" y="1250.5" width="50" height="50" as="geometry"/>
        </mxCell>
        <mxCell id="3j5tgYm17wL_fTvZgQFr-87" value="" style="endArrow=none;html=1;entryX=0;entryY=1;entryDx=0;entryDy=0;" edge="1" parent="1" target="3j5tgYm17wL_fTvZgQFr-86">
          <mxGeometry width="50" height="50" relative="1" as="geometry">
            <mxPoint x="517.5" y="1329" as="sourcePoint"/>
            <mxPoint x="584.5" y="1302.5" as="targetPoint"/>
          </mxGeometry>
        </mxCell>
        <mxCell id="3j5tgYm17wL_fTvZgQFr-88" value="Z" style="ellipse;whiteSpace=wrap;html=1;fillColor=#FF9999;" vertex="1" parent="1">
          <mxGeometry x="486" y="1322" width="50" height="50" as="geometry"/>
        </mxCell>
        <mxCell id="3j5tgYm17wL_fTvZgQFr-89" value="" style="triangle;whiteSpace=wrap;html=1;fillColor=#FFFF66;rotation=-90;strokeColor=#6c8ebf;" vertex="1" parent="1">
          <mxGeometry x="436" y="1418.5" width="50" height="50" as="geometry"/>
        </mxCell>
        <mxCell id="3j5tgYm17wL_fTvZgQFr-90" value="T1" style="text;html=1;strokeColor=none;fillColor=none;align=center;verticalAlign=middle;whiteSpace=wrap;rounded=0;strokeWidth=1;" vertex="1" parent="1">
          <mxGeometry x="449.5" y="1438.5" width="23" height="18" as="geometry"/>
        </mxCell>
        <mxCell id="3j5tgYm17wL_fTvZgQFr-91" value="" style="triangle;whiteSpace=wrap;html=1;fillColor=#FFFF66;rotation=-90;strokeColor=#6c8ebf;" vertex="1" parent="1">
          <mxGeometry x="533" y="1413.5" width="50" height="50" as="geometry"/>
        </mxCell>
        <mxCell id="3j5tgYm17wL_fTvZgQFr-92" value="T2" style="text;html=1;strokeColor=none;fillColor=none;align=center;verticalAlign=middle;whiteSpace=wrap;rounded=0;strokeWidth=1;" vertex="1" parent="1">
          <mxGeometry x="546.5" y="1433.5" width="23" height="18" as="geometry"/>
        </mxCell>
        <mxCell id="3j5tgYm17wL_fTvZgQFr-95" value="" style="triangle;whiteSpace=wrap;html=1;fillColor=#FFFF66;rotation=-90;strokeColor=#6c8ebf;" vertex="1" parent="1">
          <mxGeometry x="670" y="1245.5" width="50" height="50" as="geometry"/>
        </mxCell>
        <mxCell id="3j5tgYm17wL_fTvZgQFr-96" value="T4" style="text;html=1;strokeColor=none;fillColor=none;align=center;verticalAlign=middle;whiteSpace=wrap;rounded=0;strokeWidth=1;" vertex="1" parent="1">
          <mxGeometry x="683.5" y="1265.5" width="23" height="18" as="geometry"/>
        </mxCell>
        <mxCell id="3j5tgYm17wL_fTvZgQFr-97" value="" style="endArrow=none;html=1;exitX=1;exitY=1;exitDx=0;exitDy=0;entryX=0.74;entryY=0.4;entryDx=0;entryDy=0;entryPerimeter=0;" edge="1" parent="1" source="3j5tgYm17wL_fTvZgQFr-84" target="3j5tgYm17wL_fTvZgQFr-95">
          <mxGeometry width="50" height="50" relative="1" as="geometry">
            <mxPoint x="674.5" y="1238" as="sourcePoint"/>
            <mxPoint x="724.5" y="1188" as="targetPoint"/>
          </mxGeometry>
        </mxCell>
        <mxCell id="3j5tgYm17wL_fTvZgQFr-99" value="" style="endArrow=none;html=1;exitX=1;exitY=0.5;exitDx=0;exitDy=0;entryX=0.34;entryY=0.98;entryDx=0;entryDy=0;entryPerimeter=0;" edge="1" parent="1" source="3j5tgYm17wL_fTvZgQFr-89" target="3j5tgYm17wL_fTvZgQFr-88">
          <mxGeometry width="50" height="50" relative="1" as="geometry">
            <mxPoint x="527.5" y="1339" as="sourcePoint"/>
            <mxPoint x="496" y="1366" as="targetPoint"/>
          </mxGeometry>
        </mxCell>
        <mxCell id="3j5tgYm17wL_fTvZgQFr-100" value="" style="endArrow=none;html=1;exitX=0.68;exitY=1;exitDx=0;exitDy=0;entryX=1;entryY=0.5;entryDx=0;entryDy=0;exitPerimeter=0;" edge="1" parent="1" source="3j5tgYm17wL_fTvZgQFr-88" target="3j5tgYm17wL_fTvZgQFr-91">
          <mxGeometry width="50" height="50" relative="1" as="geometry">
            <mxPoint x="595.1776695296637" y="1303.177669529664" as="sourcePoint"/>
            <mxPoint x="619" y="1344" as="targetPoint"/>
          </mxGeometry>
        </mxCell>
        <mxCell id="3j5tgYm17wL_fTvZgQFr-101" value="" style="triangle;whiteSpace=wrap;html=1;fillColor=#FFFF66;rotation=-90;strokeColor=#6c8ebf;" vertex="1" parent="1">
          <mxGeometry x="724.5" y="1195.5" width="50" height="50" as="geometry"/>
        </mxCell>
        <mxCell id="3j5tgYm17wL_fTvZgQFr-102" value="T3" style="text;html=1;strokeColor=none;fillColor=none;align=center;verticalAlign=middle;whiteSpace=wrap;rounded=0;strokeWidth=1;" vertex="1" parent="1">
          <mxGeometry x="738" y="1215.5" width="23" height="18" as="geometry"/>
        </mxCell>
        <mxCell id="3j5tgYm17wL_fTvZgQFr-103" value="" style="endArrow=none;html=1;exitX=1;exitY=1;exitDx=0;exitDy=0;entryX=0.76;entryY=0.39;entryDx=0;entryDy=0;entryPerimeter=0;" edge="1" parent="1" target="3j5tgYm17wL_fTvZgQFr-101">
          <mxGeometry width="50" height="50" relative="1" as="geometry">
            <mxPoint x="720.1776695296637" y="1166.677669529664" as="sourcePoint"/>
            <mxPoint x="845.5" y="1137" as="targetPoint"/>
          </mxGeometry>
        </mxCell>
        <mxCell id="3j5tgYm17wL_fTvZgQFr-104" value="Y" style="ellipse;whiteSpace=wrap;html=1;fillColor=#33FF33;" vertex="1" parent="1">
          <mxGeometry x="665" y="1729.5" width="50" height="50" as="geometry"/>
        </mxCell>
        <mxCell id="3j5tgYm17wL_fTvZgQFr-106" value="X" style="ellipse;whiteSpace=wrap;html=1;fillColor=#FF9999;" vertex="1" parent="1">
          <mxGeometry x="571" y="1628.5" width="50" height="50" as="geometry"/>
        </mxCell>
        <mxCell id="3j5tgYm17wL_fTvZgQFr-107" value="" style="endArrow=none;html=1;entryX=0;entryY=1;entryDx=0;entryDy=0;" edge="1" parent="1" target="3j5tgYm17wL_fTvZgQFr-106">
          <mxGeometry width="50" height="50" relative="1" as="geometry">
            <mxPoint x="516" y="1736.5" as="sourcePoint"/>
            <mxPoint x="583" y="1710" as="targetPoint"/>
          </mxGeometry>
        </mxCell>
        <mxCell id="3j5tgYm17wL_fTvZgQFr-108" value="Z" style="ellipse;whiteSpace=wrap;html=1;fillColor=#FF9999;" vertex="1" parent="1">
          <mxGeometry x="484.5" y="1729.5" width="50" height="50" as="geometry"/>
        </mxCell>
        <mxCell id="3j5tgYm17wL_fTvZgQFr-109" value="" style="triangle;whiteSpace=wrap;html=1;fillColor=#FFFF66;rotation=-90;strokeColor=#6c8ebf;" vertex="1" parent="1">
          <mxGeometry x="434.5" y="1826" width="50" height="50" as="geometry"/>
        </mxCell>
        <mxCell id="3j5tgYm17wL_fTvZgQFr-110" value="T1" style="text;html=1;strokeColor=none;fillColor=none;align=center;verticalAlign=middle;whiteSpace=wrap;rounded=0;strokeWidth=1;" vertex="1" parent="1">
          <mxGeometry x="448" y="1846" width="23" height="18" as="geometry"/>
        </mxCell>
        <mxCell id="3j5tgYm17wL_fTvZgQFr-111" value="" style="triangle;whiteSpace=wrap;html=1;fillColor=#FFFF66;rotation=-90;strokeColor=#6c8ebf;" vertex="1" parent="1">
          <mxGeometry x="534.5" y="1826" width="50" height="50" as="geometry"/>
        </mxCell>
        <mxCell id="3j5tgYm17wL_fTvZgQFr-112" value="T2" style="text;html=1;strokeColor=none;fillColor=none;align=center;verticalAlign=middle;whiteSpace=wrap;rounded=0;strokeWidth=1;" vertex="1" parent="1">
          <mxGeometry x="548" y="1846" width="23" height="18" as="geometry"/>
        </mxCell>
        <mxCell id="3j5tgYm17wL_fTvZgQFr-113" value="" style="triangle;whiteSpace=wrap;html=1;fillColor=#FFFF66;rotation=-90;strokeColor=#6c8ebf;" vertex="1" parent="1">
          <mxGeometry x="726.5" y="1822.5" width="50" height="50" as="geometry"/>
        </mxCell>
        <mxCell id="3j5tgYm17wL_fTvZgQFr-114" value="T4" style="text;html=1;strokeColor=none;fillColor=none;align=center;verticalAlign=middle;whiteSpace=wrap;rounded=0;strokeWidth=1;" vertex="1" parent="1">
          <mxGeometry x="740" y="1842.5" width="23" height="18" as="geometry"/>
        </mxCell>
        <mxCell id="3j5tgYm17wL_fTvZgQFr-115" value="" style="endArrow=none;html=1;exitX=1;exitY=1;exitDx=0;exitDy=0;entryX=0.74;entryY=0.4;entryDx=0;entryDy=0;entryPerimeter=0;" edge="1" parent="1" source="3j5tgYm17wL_fTvZgQFr-104" target="3j5tgYm17wL_fTvZgQFr-113">
          <mxGeometry width="50" height="50" relative="1" as="geometry">
            <mxPoint x="731" y="1815" as="sourcePoint"/>
            <mxPoint x="781" y="1765" as="targetPoint"/>
          </mxGeometry>
        </mxCell>
        <mxCell id="3j5tgYm17wL_fTvZgQFr-116" value="" style="endArrow=none;html=1;exitX=1;exitY=0.5;exitDx=0;exitDy=0;entryX=0.34;entryY=0.98;entryDx=0;entryDy=0;entryPerimeter=0;" edge="1" parent="1" source="3j5tgYm17wL_fTvZgQFr-109" target="3j5tgYm17wL_fTvZgQFr-108">
          <mxGeometry width="50" height="50" relative="1" as="geometry">
            <mxPoint x="526" y="1746.5" as="sourcePoint"/>
            <mxPoint x="494.5" y="1773.5" as="targetPoint"/>
          </mxGeometry>
        </mxCell>
        <mxCell id="3j5tgYm17wL_fTvZgQFr-117" value="" style="endArrow=none;html=1;exitX=0.68;exitY=1;exitDx=0;exitDy=0;entryX=1;entryY=0.5;entryDx=0;entryDy=0;exitPerimeter=0;" edge="1" parent="1" source="3j5tgYm17wL_fTvZgQFr-108" target="3j5tgYm17wL_fTvZgQFr-111">
          <mxGeometry width="50" height="50" relative="1" as="geometry">
            <mxPoint x="593.6776695296637" y="1710.677669529664" as="sourcePoint"/>
            <mxPoint x="617.5" y="1751.5" as="targetPoint"/>
          </mxGeometry>
        </mxCell>
        <mxCell id="3j5tgYm17wL_fTvZgQFr-121" value="" style="endArrow=none;html=1;exitX=1;exitY=1;exitDx=0;exitDy=0;entryX=0;entryY=0;entryDx=0;entryDy=0;" edge="1" parent="1" source="3j5tgYm17wL_fTvZgQFr-106" target="3j5tgYm17wL_fTvZgQFr-104">
          <mxGeometry width="50" height="50" relative="1" as="geometry">
            <mxPoint x="528.5" y="1789.5" as="sourcePoint"/>
            <mxPoint x="569.5" y="1836" as="targetPoint"/>
          </mxGeometry>
        </mxCell>
        <mxCell id="3j5tgYm17wL_fTvZgQFr-122" value="" style="triangle;whiteSpace=wrap;html=1;fillColor=#FFFF66;rotation=-90;strokeColor=#6c8ebf;" vertex="1" parent="1">
          <mxGeometry x="703.5" y="1628.5" width="50" height="50" as="geometry"/>
        </mxCell>
        <mxCell id="3j5tgYm17wL_fTvZgQFr-123" value="T3" style="text;html=1;strokeColor=none;fillColor=none;align=center;verticalAlign=middle;whiteSpace=wrap;rounded=0;strokeWidth=1;" vertex="1" parent="1">
          <mxGeometry x="717" y="1648.5" width="23" height="18" as="geometry"/>
        </mxCell>
        <mxCell id="3j5tgYm17wL_fTvZgQFr-124" value="" style="endArrow=none;html=1;exitX=1;exitY=1;exitDx=0;exitDy=0;entryX=0.76;entryY=0.39;entryDx=0;entryDy=0;entryPerimeter=0;" edge="1" parent="1" target="3j5tgYm17wL_fTvZgQFr-122">
          <mxGeometry width="50" height="50" relative="1" as="geometry">
            <mxPoint x="699.177669529664" y="1599.677669529664" as="sourcePoint"/>
            <mxPoint x="824.5" y="1570" as="targetPoint"/>
          </mxGeometry>
        </mxCell>
        <mxCell id="3j5tgYm17wL_fTvZgQFr-125" value="Y" style="ellipse;whiteSpace=wrap;html=1;fillColor=#FF9999;" vertex="1" parent="1">
          <mxGeometry x="260.5" y="1698.5" width="50" height="50" as="geometry"/>
        </mxCell>
        <mxCell id="3j5tgYm17wL_fTvZgQFr-126" value="X" style="ellipse;whiteSpace=wrap;html=1;fillColor=#FF9999;" vertex="1" parent="1">
          <mxGeometry x="186.5" y="1572.5" width="50" height="50" as="geometry"/>
        </mxCell>
        <mxCell id="3j5tgYm17wL_fTvZgQFr-127" value="" style="endArrow=none;html=1;entryX=0;entryY=1;entryDx=0;entryDy=0;" edge="1" parent="1" target="3j5tgYm17wL_fTvZgQFr-126">
          <mxGeometry width="50" height="50" relative="1" as="geometry">
            <mxPoint x="124" y="1727" as="sourcePoint"/>
            <mxPoint x="191" y="1700.5" as="targetPoint"/>
          </mxGeometry>
        </mxCell>
        <mxCell id="3j5tgYm17wL_fTvZgQFr-128" value="Z" style="ellipse;whiteSpace=wrap;html=1;fillColor=#FF9999;" vertex="1" parent="1">
          <mxGeometry x="100" y="1698.5" width="50" height="50" as="geometry"/>
        </mxCell>
        <mxCell id="3j5tgYm17wL_fTvZgQFr-129" value="" style="triangle;whiteSpace=wrap;html=1;fillColor=#FFFF66;rotation=-90;strokeColor=#6c8ebf;" vertex="1" parent="1">
          <mxGeometry x="53" y="1824" width="50" height="50" as="geometry"/>
        </mxCell>
        <mxCell id="3j5tgYm17wL_fTvZgQFr-130" value="T1" style="text;html=1;strokeColor=none;fillColor=none;align=center;verticalAlign=middle;whiteSpace=wrap;rounded=0;strokeWidth=1;" vertex="1" parent="1">
          <mxGeometry x="66.5" y="1842" width="23" height="18" as="geometry"/>
        </mxCell>
        <mxCell id="3j5tgYm17wL_fTvZgQFr-131" value="" style="triangle;whiteSpace=wrap;html=1;fillColor=#FFFF66;rotation=-90;strokeColor=#6c8ebf;" vertex="1" parent="1">
          <mxGeometry x="137.5" y="1820.5" width="50" height="50" as="geometry"/>
        </mxCell>
        <mxCell id="3j5tgYm17wL_fTvZgQFr-132" value="T2" style="text;html=1;strokeColor=none;fillColor=none;align=center;verticalAlign=middle;whiteSpace=wrap;rounded=0;strokeWidth=1;" vertex="1" parent="1">
          <mxGeometry x="151" y="1840.5" width="23" height="18" as="geometry"/>
        </mxCell>
        <mxCell id="3j5tgYm17wL_fTvZgQFr-133" value="" style="triangle;whiteSpace=wrap;html=1;fillColor=#FFFF66;rotation=-90;strokeColor=#6c8ebf;" vertex="1" parent="1">
          <mxGeometry x="310.5" y="1819.5" width="50" height="50" as="geometry"/>
        </mxCell>
        <mxCell id="3j5tgYm17wL_fTvZgQFr-134" value="T4" style="text;html=1;strokeColor=none;fillColor=none;align=center;verticalAlign=middle;whiteSpace=wrap;rounded=0;strokeWidth=1;" vertex="1" parent="1">
          <mxGeometry x="324" y="1839.5" width="23" height="18" as="geometry"/>
        </mxCell>
        <mxCell id="3j5tgYm17wL_fTvZgQFr-135" value="" style="endArrow=none;html=1;exitX=1;exitY=1;exitDx=0;exitDy=0;entryX=1;entryY=0.5;entryDx=0;entryDy=0;" edge="1" parent="1" source="3j5tgYm17wL_fTvZgQFr-125" target="3j5tgYm17wL_fTvZgQFr-133">
          <mxGeometry width="50" height="50" relative="1" as="geometry">
            <mxPoint x="339" y="1805.5" as="sourcePoint"/>
            <mxPoint x="389" y="1755.5" as="targetPoint"/>
          </mxGeometry>
        </mxCell>
        <mxCell id="3j5tgYm17wL_fTvZgQFr-136" value="" style="endArrow=none;html=1;entryX=0.34;entryY=0.98;entryDx=0;entryDy=0;entryPerimeter=0;exitX=1;exitY=0.5;exitDx=0;exitDy=0;" edge="1" parent="1" source="3j5tgYm17wL_fTvZgQFr-129" target="3j5tgYm17wL_fTvZgQFr-128">
          <mxGeometry width="50" height="50" relative="1" as="geometry">
            <mxPoint x="60" y="1817" as="sourcePoint"/>
            <mxPoint x="102.5" y="1764" as="targetPoint"/>
          </mxGeometry>
        </mxCell>
        <mxCell id="3j5tgYm17wL_fTvZgQFr-137" value="" style="endArrow=none;html=1;exitX=0.68;exitY=1;exitDx=0;exitDy=0;entryX=1;entryY=0.5;entryDx=0;entryDy=0;exitPerimeter=0;" edge="1" parent="1" source="3j5tgYm17wL_fTvZgQFr-128" target="3j5tgYm17wL_fTvZgQFr-131">
          <mxGeometry width="50" height="50" relative="1" as="geometry">
            <mxPoint x="201.67766952966372" y="1701.177669529664" as="sourcePoint"/>
            <mxPoint x="225.5" y="1742" as="targetPoint"/>
          </mxGeometry>
        </mxCell>
        <mxCell id="3j5tgYm17wL_fTvZgQFr-138" value="" style="endArrow=none;html=1;exitX=1;exitY=1;exitDx=0;exitDy=0;entryX=0.28;entryY=0.03;entryDx=0;entryDy=0;entryPerimeter=0;" edge="1" parent="1" source="3j5tgYm17wL_fTvZgQFr-126" target="3j5tgYm17wL_fTvZgQFr-125">
          <mxGeometry width="50" height="50" relative="1" as="geometry">
            <mxPoint x="136.5" y="1780" as="sourcePoint"/>
            <mxPoint x="177.5" y="1826.5" as="targetPoint"/>
          </mxGeometry>
        </mxCell>
        <mxCell id="3j5tgYm17wL_fTvZgQFr-139" value="" style="triangle;whiteSpace=wrap;html=1;fillColor=#FFFF66;rotation=-90;strokeColor=#6c8ebf;" vertex="1" parent="1">
          <mxGeometry x="219" y="1824.5" width="50" height="50" as="geometry"/>
        </mxCell>
        <mxCell id="3j5tgYm17wL_fTvZgQFr-140" value="T3" style="text;html=1;strokeColor=none;fillColor=none;align=center;verticalAlign=middle;whiteSpace=wrap;rounded=0;strokeWidth=1;" vertex="1" parent="1">
          <mxGeometry x="232.5" y="1844.5" width="23" height="18" as="geometry"/>
        </mxCell>
        <mxCell id="3j5tgYm17wL_fTvZgQFr-141" value="" style="endArrow=none;html=1;entryX=1;entryY=0.5;entryDx=0;entryDy=0;" edge="1" parent="1" target="3j5tgYm17wL_fTvZgQFr-139" source="3j5tgYm17wL_fTvZgQFr-125">
          <mxGeometry width="50" height="50" relative="1" as="geometry">
            <mxPoint x="247.17766952966394" y="1787.677669529664" as="sourcePoint"/>
            <mxPoint x="277" y="1817.5" as="targetPoint"/>
          </mxGeometry>
        </mxCell>
        <mxCell id="3j5tgYm17wL_fTvZgQFr-143" value="" style="whiteSpace=wrap;html=1;aspect=fixed;fillColor=none;" vertex="1" parent="1">
          <mxGeometry x="431" y="1146" width="352" height="352" as="geometry"/>
        </mxCell>
        <mxCell id="3j5tgYm17wL_fTvZgQFr-144" value="" style="whiteSpace=wrap;html=1;aspect=fixed;fillColor=none;" vertex="1" parent="1">
          <mxGeometry x="39" y="1146" width="352" height="352" as="geometry"/>
        </mxCell>
        <mxCell id="3j5tgYm17wL_fTvZgQFr-148" value="" style="shape=singleArrow;whiteSpace=wrap;html=1;strokeWidth=1;fillColor=none;" vertex="1" parent="1">
          <mxGeometry x="398" y="1307" width="26" height="30" as="geometry"/>
        </mxCell>
        <mxCell id="3j5tgYm17wL_fTvZgQFr-150" value="" style="shape=singleArrow;direction=south;whiteSpace=wrap;html=1;strokeWidth=1;fillColor=none;" vertex="1" parent="1">
          <mxGeometry x="589.5" y="1503.5" width="35" height="39" as="geometry"/>
        </mxCell>
        <mxCell id="3j5tgYm17wL_fTvZgQFr-152" value="" style="shape=singleArrow;direction=west;whiteSpace=wrap;html=1;strokeWidth=1;fillColor=none;" vertex="1" parent="1">
          <mxGeometry x="398" y="1708.5" width="26" height="30" as="geometry"/>
        </mxCell>
        <mxCell id="3j5tgYm17wL_fTvZgQFr-169" value="30" style="ellipse;whiteSpace=wrap;html=1;fillColor=#FF9999;" vertex="1" parent="1">
          <mxGeometry x="1222" y="896.5" width="50" height="50" as="geometry"/>
        </mxCell>
        <mxCell id="3j5tgYm17wL_fTvZgQFr-170" value="" style="endArrow=none;html=1;exitX=0.28;exitY=0.06;exitDx=0;exitDy=0;entryX=1;entryY=1;entryDx=0;entryDy=0;exitPerimeter=0;" edge="1" parent="1" source="3j5tgYm17wL_fTvZgQFr-171" target="3j5tgYm17wL_fTvZgQFr-169">
          <mxGeometry width="50" height="50" relative="1" as="geometry">
            <mxPoint x="1229" y="1090" as="sourcePoint"/>
            <mxPoint x="1306" y="993" as="targetPoint"/>
          </mxGeometry>
        </mxCell>
        <mxCell id="3j5tgYm17wL_fTvZgQFr-171" value="40" style="ellipse;whiteSpace=wrap;html=1;fillColor=#FF9999;" vertex="1" parent="1">
          <mxGeometry x="1301" y="1000" width="50" height="50" as="geometry"/>
        </mxCell>
        <mxCell id="3j5tgYm17wL_fTvZgQFr-172" value="&lt;b&gt;1&lt;/b&gt;" style="text;html=1;strokeColor=none;fillColor=none;align=center;verticalAlign=middle;whiteSpace=wrap;rounded=0;" vertex="1" parent="1">
          <mxGeometry x="1266" y="890.5" width="40" height="20" as="geometry"/>
        </mxCell>
        <mxCell id="3j5tgYm17wL_fTvZgQFr-173" value="0" style="text;html=1;strokeColor=none;fillColor=none;align=center;verticalAlign=middle;whiteSpace=wrap;rounded=0;fontStyle=1" vertex="1" parent="1">
          <mxGeometry x="1342" y="995" width="40" height="20" as="geometry"/>
        </mxCell>
        <mxCell id="3j5tgYm17wL_fTvZgQFr-174" value="" style="shape=singleArrow;whiteSpace=wrap;html=1;fillColor=#66FFFF;" vertex="1" parent="1">
          <mxGeometry x="1417" y="991" width="136" height="28" as="geometry"/>
        </mxCell>
        <mxCell id="3j5tgYm17wL_fTvZgQFr-175" value="向树中插入节点50" style="text;html=1;strokeColor=none;fillColor=none;align=center;verticalAlign=middle;whiteSpace=wrap;rounded=0;fontStyle=1" vertex="1" parent="1">
          <mxGeometry x="1423" y="975" width="105" height="6" as="geometry"/>
        </mxCell>
        <mxCell id="3j5tgYm17wL_fTvZgQFr-176" value="" style="shape=singleArrow;whiteSpace=wrap;html=1;fillColor=#66FFFF;" vertex="1" parent="1">
          <mxGeometry x="1803" y="977.5" width="136" height="28" as="geometry"/>
        </mxCell>
        <mxCell id="3j5tgYm17wL_fTvZgQFr-177" value="引起节点30的平衡因子变成了2" style="text;html=1;strokeColor=none;fillColor=none;align=center;verticalAlign=middle;whiteSpace=wrap;rounded=0;fontStyle=1" vertex="1" parent="1">
          <mxGeometry x="1810" y="944.5" width="100" height="41" as="geometry"/>
        </mxCell>
        <mxCell id="3j5tgYm17wL_fTvZgQFr-186" value="" style="whiteSpace=wrap;html=1;aspect=fixed;fillColor=none;" vertex="1" parent="1">
          <mxGeometry x="1565" y="873" width="209" height="209" as="geometry"/>
        </mxCell>
        <mxCell id="3j5tgYm17wL_fTvZgQFr-187" value="30" style="ellipse;whiteSpace=wrap;html=1;fillColor=#FF9999;" vertex="1" parent="1">
          <mxGeometry x="1609" y="896.5" width="50" height="50" as="geometry"/>
        </mxCell>
        <mxCell id="3j5tgYm17wL_fTvZgQFr-188" value="" style="endArrow=none;html=1;exitX=0.28;exitY=0.06;exitDx=0;exitDy=0;entryX=1;entryY=1;entryDx=0;entryDy=0;exitPerimeter=0;" edge="1" parent="1" source="3j5tgYm17wL_fTvZgQFr-189" target="3j5tgYm17wL_fTvZgQFr-187">
          <mxGeometry width="50" height="50" relative="1" as="geometry">
            <mxPoint x="1616" y="1090" as="sourcePoint"/>
            <mxPoint x="1693" y="993" as="targetPoint"/>
          </mxGeometry>
        </mxCell>
        <mxCell id="3j5tgYm17wL_fTvZgQFr-189" value="40" style="ellipse;whiteSpace=wrap;html=1;fillColor=#FF9999;" vertex="1" parent="1">
          <mxGeometry x="1688" y="1000" width="50" height="50" as="geometry"/>
        </mxCell>
        <mxCell id="3j5tgYm17wL_fTvZgQFr-190" value="&lt;b&gt;1&lt;/b&gt;" style="text;html=1;strokeColor=none;fillColor=none;align=center;verticalAlign=middle;whiteSpace=wrap;rounded=0;" vertex="1" parent="1">
          <mxGeometry x="1653" y="890.5" width="40" height="20" as="geometry"/>
        </mxCell>
        <mxCell id="3j5tgYm17wL_fTvZgQFr-191" value="0" style="text;html=1;strokeColor=none;fillColor=none;align=center;verticalAlign=middle;whiteSpace=wrap;rounded=0;fontStyle=1" vertex="1" parent="1">
          <mxGeometry x="1729" y="995" width="40" height="20" as="geometry"/>
        </mxCell>
        <mxCell id="3j5tgYm17wL_fTvZgQFr-192" value="50" style="ellipse;whiteSpace=wrap;html=1;fillColor=#FF9999;" vertex="1" parent="1">
          <mxGeometry x="1590" y="1011" width="50" height="50" as="geometry"/>
        </mxCell>
        <mxCell id="3j5tgYm17wL_fTvZgQFr-195" value="" style="whiteSpace=wrap;html=1;aspect=fixed;fillColor=none;" vertex="1" parent="1">
          <mxGeometry x="1971" y="870.5" width="209" height="209" as="geometry"/>
        </mxCell>
        <mxCell id="3j5tgYm17wL_fTvZgQFr-196" value="30" style="ellipse;whiteSpace=wrap;html=1;fillColor=#33FF33;" vertex="1" parent="1">
          <mxGeometry x="1986" y="885.5" width="50" height="50" as="geometry"/>
        </mxCell>
        <mxCell id="3j5tgYm17wL_fTvZgQFr-197" value="" style="endArrow=none;html=1;exitX=0.28;exitY=0.06;exitDx=0;exitDy=0;entryX=1;entryY=1;entryDx=0;entryDy=0;exitPerimeter=0;" edge="1" parent="1" source="3j5tgYm17wL_fTvZgQFr-198" target="3j5tgYm17wL_fTvZgQFr-196">
          <mxGeometry width="50" height="50" relative="1" as="geometry">
            <mxPoint x="1982.5" y="1077" as="sourcePoint"/>
            <mxPoint x="2059.5" y="980" as="targetPoint"/>
          </mxGeometry>
        </mxCell>
        <mxCell id="3j5tgYm17wL_fTvZgQFr-198" value="40" style="ellipse;whiteSpace=wrap;html=1;fillColor=#FF9999;" vertex="1" parent="1">
          <mxGeometry x="2050.5" y="953" width="50" height="50" as="geometry"/>
        </mxCell>
        <mxCell id="3j5tgYm17wL_fTvZgQFr-199" value="&lt;b&gt;2&lt;/b&gt;" style="text;html=1;strokeColor=none;fillColor=none;align=center;verticalAlign=middle;whiteSpace=wrap;rounded=0;" vertex="1" parent="1">
          <mxGeometry x="2019.5" y="877.5" width="40" height="20" as="geometry"/>
        </mxCell>
        <mxCell id="3j5tgYm17wL_fTvZgQFr-200" value="1" style="text;html=1;strokeColor=none;fillColor=none;align=center;verticalAlign=middle;whiteSpace=wrap;rounded=0;fontStyle=1" vertex="1" parent="1">
          <mxGeometry x="2080.5" y="932" width="40" height="20" as="geometry"/>
        </mxCell>
        <mxCell id="3j5tgYm17wL_fTvZgQFr-201" value="50" style="ellipse;whiteSpace=wrap;html=1;fillColor=#FF9999;" vertex="1" parent="1">
          <mxGeometry x="2100.5" y="1022" width="50" height="50" as="geometry"/>
        </mxCell>
        <mxCell id="3j5tgYm17wL_fTvZgQFr-202" value="0" style="text;html=1;strokeColor=none;fillColor=none;align=center;verticalAlign=middle;whiteSpace=wrap;rounded=0;fontStyle=1" vertex="1" parent="1">
          <mxGeometry x="2127" y="1005" width="40" height="20" as="geometry"/>
        </mxCell>
        <mxCell id="3j5tgYm17wL_fTvZgQFr-205" value="" style="endArrow=none;html=1;entryX=1;entryY=1;entryDx=0;entryDy=0;exitX=0.38;exitY=-0.02;exitDx=0;exitDy=0;exitPerimeter=0;" edge="1" parent="1" source="3j5tgYm17wL_fTvZgQFr-201" target="3j5tgYm17wL_fTvZgQFr-198">
          <mxGeometry width="50" height="50" relative="1" as="geometry">
            <mxPoint x="2074.5" y="960.5" as="sourcePoint"/>
            <mxPoint x="2038.677669529664" y="938.177669529664" as="targetPoint"/>
          </mxGeometry>
        </mxCell>
        <mxCell id="3j5tgYm17wL_fTvZgQFr-208" value="Y" style="ellipse;whiteSpace=wrap;html=1;fillColor=#33FF33;" vertex="1" parent="1">
          <mxGeometry x="1415" y="1184.5" width="50" height="50" as="geometry"/>
        </mxCell>
        <mxCell id="3j5tgYm17wL_fTvZgQFr-209" value="" style="endArrow=none;html=1;exitX=1;exitY=0.5;exitDx=0;exitDy=0;entryX=0;entryY=1;entryDx=0;entryDy=0;" edge="1" parent="1" source="3j5tgYm17wL_fTvZgQFr-281" target="3j5tgYm17wL_fTvZgQFr-208">
          <mxGeometry width="50" height="50" relative="1" as="geometry">
            <mxPoint x="1385.677669529664" y="1273.322330470336" as="sourcePoint"/>
            <mxPoint x="1485" y="1210.5" as="targetPoint"/>
          </mxGeometry>
        </mxCell>
        <mxCell id="3j5tgYm17wL_fTvZgQFr-211" value="" style="endArrow=none;html=1;entryX=0;entryY=1;entryDx=0;entryDy=0;exitX=1;exitY=0.5;exitDx=0;exitDy=0;" edge="1" parent="1" target="3j5tgYm17wL_fTvZgQFr-283" source="3j5tgYm17wL_fTvZgQFr-285">
          <mxGeometry width="50" height="50" relative="1" as="geometry">
            <mxPoint x="1318" y="1344.5" as="sourcePoint"/>
            <mxPoint x="1350.322330470336" y="1308.677669529664" as="targetPoint"/>
          </mxGeometry>
        </mxCell>
        <mxCell id="3j5tgYm17wL_fTvZgQFr-213" value="" style="triangle;whiteSpace=wrap;html=1;fillColor=#FFFF66;rotation=-90;strokeColor=#6c8ebf;" vertex="1" parent="1">
          <mxGeometry x="1465" y="1448" width="50" height="50" as="geometry"/>
        </mxCell>
        <mxCell id="3j5tgYm17wL_fTvZgQFr-214" value="T1" style="text;html=1;strokeColor=none;fillColor=none;align=center;verticalAlign=middle;whiteSpace=wrap;rounded=0;strokeWidth=1;" vertex="1" parent="1">
          <mxGeometry x="1478.5" y="1468" width="23" height="18" as="geometry"/>
        </mxCell>
        <mxCell id="3j5tgYm17wL_fTvZgQFr-215" value="" style="triangle;whiteSpace=wrap;html=1;fillColor=#FFFF66;rotation=-90;strokeColor=#6c8ebf;" vertex="1" parent="1">
          <mxGeometry x="1565" y="1443" width="50" height="50" as="geometry"/>
        </mxCell>
        <mxCell id="3j5tgYm17wL_fTvZgQFr-216" value="T2" style="text;html=1;strokeColor=none;fillColor=none;align=center;verticalAlign=middle;whiteSpace=wrap;rounded=0;strokeWidth=1;" vertex="1" parent="1">
          <mxGeometry x="1578.5" y="1463" width="23" height="18" as="geometry"/>
        </mxCell>
        <mxCell id="3j5tgYm17wL_fTvZgQFr-221" value="" style="endArrow=none;html=1;exitX=1;exitY=1;exitDx=0;exitDy=0;entryX=0.74;entryY=0.4;entryDx=0;entryDy=0;entryPerimeter=0;" edge="1" parent="1" source="3j5tgYm17wL_fTvZgQFr-208">
          <mxGeometry width="50" height="50" relative="1" as="geometry">
            <mxPoint x="1475" y="1253.5" as="sourcePoint"/>
            <mxPoint x="1490.5" y="1274" as="targetPoint"/>
          </mxGeometry>
        </mxCell>
        <mxCell id="3j5tgYm17wL_fTvZgQFr-222" value="" style="endArrow=none;html=1;exitX=1;exitY=1;exitDx=0;exitDy=0;" edge="1" parent="1" source="3j5tgYm17wL_fTvZgQFr-283" target="3j5tgYm17wL_fTvZgQFr-284">
          <mxGeometry width="50" height="50" relative="1" as="geometry">
            <mxPoint x="1385.677669529664" y="1308.677669529664" as="sourcePoint"/>
            <mxPoint x="1409.5" y="1349.5" as="targetPoint"/>
          </mxGeometry>
        </mxCell>
        <mxCell id="3j5tgYm17wL_fTvZgQFr-223" value="" style="endArrow=none;html=1;exitX=1;exitY=0.5;exitDx=0;exitDy=0;" edge="1" parent="1" source="3j5tgYm17wL_fTvZgQFr-213">
          <mxGeometry width="50" height="50" relative="1" as="geometry">
            <mxPoint x="1556.5" y="1368.5" as="sourcePoint"/>
            <mxPoint x="1529" y="1395" as="targetPoint"/>
          </mxGeometry>
        </mxCell>
        <mxCell id="3j5tgYm17wL_fTvZgQFr-224" value="" style="endArrow=none;html=1;exitX=1;exitY=1;exitDx=0;exitDy=0;entryX=1;entryY=0.5;entryDx=0;entryDy=0;" edge="1" parent="1" source="3j5tgYm17wL_fTvZgQFr-284" target="3j5tgYm17wL_fTvZgQFr-215">
          <mxGeometry width="50" height="50" relative="1" as="geometry">
            <mxPoint x="1549" y="1401.5" as="sourcePoint"/>
            <mxPoint x="1648" y="1373.5" as="targetPoint"/>
          </mxGeometry>
        </mxCell>
        <mxCell id="3j5tgYm17wL_fTvZgQFr-278" value="" style="shape=singleArrow;whiteSpace=wrap;html=1;strokeWidth=1;fillColor=none;" vertex="1" parent="1">
          <mxGeometry x="1690.5" y="1327" width="26" height="30" as="geometry"/>
        </mxCell>
        <mxCell id="3j5tgYm17wL_fTvZgQFr-279" value="" style="shape=singleArrow;direction=south;whiteSpace=wrap;html=1;strokeWidth=1;fillColor=none;" vertex="1" parent="1">
          <mxGeometry x="1882" y="1523.5" width="35" height="39" as="geometry"/>
        </mxCell>
        <mxCell id="3j5tgYm17wL_fTvZgQFr-280" value="" style="shape=singleArrow;direction=west;whiteSpace=wrap;html=1;strokeWidth=1;fillColor=none;" vertex="1" parent="1">
          <mxGeometry x="1690.5" y="1728.5" width="26" height="30" as="geometry"/>
        </mxCell>
        <mxCell id="3j5tgYm17wL_fTvZgQFr-281" value="" style="triangle;whiteSpace=wrap;html=1;fillColor=#FFFF66;rotation=-90;strokeColor=#6c8ebf;" vertex="1" parent="1">
          <mxGeometry x="1358.5" y="1270" width="50" height="50" as="geometry"/>
        </mxCell>
        <mxCell id="3j5tgYm17wL_fTvZgQFr-282" value="T4" style="text;html=1;strokeColor=none;fillColor=none;align=center;verticalAlign=middle;whiteSpace=wrap;rounded=0;strokeWidth=1;" vertex="1" parent="1">
          <mxGeometry x="1372" y="1290" width="23" height="18" as="geometry"/>
        </mxCell>
        <mxCell id="3j5tgYm17wL_fTvZgQFr-283" value="X" style="ellipse;whiteSpace=wrap;html=1;fillColor=#FF9999;" vertex="1" parent="1">
          <mxGeometry x="1469" y="1274" width="50" height="50" as="geometry"/>
        </mxCell>
        <mxCell id="3j5tgYm17wL_fTvZgQFr-284" value="Z" style="ellipse;whiteSpace=wrap;html=1;fillColor=#FF9999;" vertex="1" parent="1">
          <mxGeometry x="1519" y="1352.5" width="50" height="50" as="geometry"/>
        </mxCell>
        <mxCell id="3j5tgYm17wL_fTvZgQFr-285" value="" style="triangle;whiteSpace=wrap;html=1;fillColor=#FFFF66;rotation=-90;strokeColor=#6c8ebf;" vertex="1" parent="1">
          <mxGeometry x="1431" y="1352.5" width="50" height="50" as="geometry"/>
        </mxCell>
        <mxCell id="3j5tgYm17wL_fTvZgQFr-286" value="T3" style="text;html=1;strokeColor=none;fillColor=none;align=center;verticalAlign=middle;whiteSpace=wrap;rounded=0;strokeWidth=1;" vertex="1" parent="1">
          <mxGeometry x="1444.5" y="1372.5" width="23" height="18" as="geometry"/>
        </mxCell>
        <mxCell id="3j5tgYm17wL_fTvZgQFr-287" value="Y" style="ellipse;whiteSpace=wrap;html=1;fillColor=#33FF33;" vertex="1" parent="1">
          <mxGeometry x="1851.5" y="1180.5" width="50" height="50" as="geometry"/>
        </mxCell>
        <mxCell id="3j5tgYm17wL_fTvZgQFr-288" value="" style="endArrow=none;html=1;exitX=1;exitY=0.5;exitDx=0;exitDy=0;entryX=0;entryY=1;entryDx=0;entryDy=0;" edge="1" parent="1" source="3j5tgYm17wL_fTvZgQFr-298" target="3j5tgYm17wL_fTvZgQFr-287">
          <mxGeometry width="50" height="50" relative="1" as="geometry">
            <mxPoint x="1822.177669529664" y="1269.322330470336" as="sourcePoint"/>
            <mxPoint x="1921.5" y="1206.5" as="targetPoint"/>
          </mxGeometry>
        </mxCell>
        <mxCell id="3j5tgYm17wL_fTvZgQFr-290" value="" style="triangle;whiteSpace=wrap;html=1;fillColor=#FFFF66;rotation=-90;strokeColor=#6c8ebf;" vertex="1" parent="1">
          <mxGeometry x="1901.5" y="1444" width="50" height="50" as="geometry"/>
        </mxCell>
        <mxCell id="3j5tgYm17wL_fTvZgQFr-291" value="T1" style="text;html=1;strokeColor=none;fillColor=none;align=center;verticalAlign=middle;whiteSpace=wrap;rounded=0;strokeWidth=1;" vertex="1" parent="1">
          <mxGeometry x="1915" y="1464" width="23" height="18" as="geometry"/>
        </mxCell>
        <mxCell id="3j5tgYm17wL_fTvZgQFr-292" value="" style="triangle;whiteSpace=wrap;html=1;fillColor=#FFFF66;rotation=-90;strokeColor=#6c8ebf;" vertex="1" parent="1">
          <mxGeometry x="2001.5" y="1439" width="50" height="50" as="geometry"/>
        </mxCell>
        <mxCell id="3j5tgYm17wL_fTvZgQFr-293" value="T2" style="text;html=1;strokeColor=none;fillColor=none;align=center;verticalAlign=middle;whiteSpace=wrap;rounded=0;strokeWidth=1;" vertex="1" parent="1">
          <mxGeometry x="2015" y="1459" width="23" height="18" as="geometry"/>
        </mxCell>
        <mxCell id="3j5tgYm17wL_fTvZgQFr-294" value="" style="endArrow=none;html=1;exitX=1;exitY=1;exitDx=0;exitDy=0;entryX=0.74;entryY=0.4;entryDx=0;entryDy=0;entryPerimeter=0;" edge="1" parent="1" source="3j5tgYm17wL_fTvZgQFr-287">
          <mxGeometry width="50" height="50" relative="1" as="geometry">
            <mxPoint x="1911.5" y="1249.5" as="sourcePoint"/>
            <mxPoint x="1927" y="1270" as="targetPoint"/>
          </mxGeometry>
        </mxCell>
        <mxCell id="3j5tgYm17wL_fTvZgQFr-295" value="" style="endArrow=none;html=1;exitX=1;exitY=1;exitDx=0;exitDy=0;" edge="1" parent="1" source="3j5tgYm17wL_fTvZgQFr-300" target="3j5tgYm17wL_fTvZgQFr-301">
          <mxGeometry width="50" height="50" relative="1" as="geometry">
            <mxPoint x="1822.177669529664" y="1304.677669529664" as="sourcePoint"/>
            <mxPoint x="1846" y="1345.5" as="targetPoint"/>
          </mxGeometry>
        </mxCell>
        <mxCell id="3j5tgYm17wL_fTvZgQFr-296" value="" style="endArrow=none;html=1;exitX=1;exitY=0.5;exitDx=0;exitDy=0;" edge="1" parent="1" source="3j5tgYm17wL_fTvZgQFr-290">
          <mxGeometry width="50" height="50" relative="1" as="geometry">
            <mxPoint x="1993" y="1364.5" as="sourcePoint"/>
            <mxPoint x="1965.5" y="1391" as="targetPoint"/>
          </mxGeometry>
        </mxCell>
        <mxCell id="3j5tgYm17wL_fTvZgQFr-297" value="" style="endArrow=none;html=1;exitX=1;exitY=1;exitDx=0;exitDy=0;entryX=1;entryY=0.5;entryDx=0;entryDy=0;" edge="1" parent="1" source="3j5tgYm17wL_fTvZgQFr-301" target="3j5tgYm17wL_fTvZgQFr-292">
          <mxGeometry width="50" height="50" relative="1" as="geometry">
            <mxPoint x="1985.5" y="1397.5" as="sourcePoint"/>
            <mxPoint x="2084.5" y="1369.5" as="targetPoint"/>
          </mxGeometry>
        </mxCell>
        <mxCell id="3j5tgYm17wL_fTvZgQFr-298" value="" style="triangle;whiteSpace=wrap;html=1;fillColor=#FFFF66;rotation=-90;strokeColor=#6c8ebf;" vertex="1" parent="1">
          <mxGeometry x="1795" y="1266" width="50" height="50" as="geometry"/>
        </mxCell>
        <mxCell id="3j5tgYm17wL_fTvZgQFr-299" value="T4" style="text;html=1;strokeColor=none;fillColor=none;align=center;verticalAlign=middle;whiteSpace=wrap;rounded=0;strokeWidth=1;" vertex="1" parent="1">
          <mxGeometry x="1808.5" y="1286" width="23" height="18" as="geometry"/>
        </mxCell>
        <mxCell id="3j5tgYm17wL_fTvZgQFr-300" value="X" style="ellipse;whiteSpace=wrap;html=1;fillColor=#FF9999;" vertex="1" parent="1">
          <mxGeometry x="1905.5" y="1270" width="50" height="50" as="geometry"/>
        </mxCell>
        <mxCell id="3j5tgYm17wL_fTvZgQFr-301" value="Z" style="ellipse;whiteSpace=wrap;html=1;fillColor=#FF9999;" vertex="1" parent="1">
          <mxGeometry x="1955.5" y="1348.5" width="50" height="50" as="geometry"/>
        </mxCell>
        <mxCell id="3j5tgYm17wL_fTvZgQFr-304" value="" style="endArrow=none;html=1;entryX=0;entryY=1;entryDx=0;entryDy=0;exitX=1;exitY=0.5;exitDx=0;exitDy=0;" edge="1" parent="1" source="3j5tgYm17wL_fTvZgQFr-305">
          <mxGeometry width="50" height="50" relative="1" as="geometry">
            <mxPoint x="1657" y="1398.5" as="sourcePoint"/>
            <mxPoint x="1815.322330470336" y="1370.677669529664" as="targetPoint"/>
          </mxGeometry>
        </mxCell>
        <mxCell id="3j5tgYm17wL_fTvZgQFr-305" value="" style="triangle;whiteSpace=wrap;html=1;fillColor=#FFFF66;rotation=-90;strokeColor=#6c8ebf;" vertex="1" parent="1">
          <mxGeometry x="1770" y="1406.5" width="50" height="50" as="geometry"/>
        </mxCell>
        <mxCell id="3j5tgYm17wL_fTvZgQFr-306" value="T3" style="text;html=1;strokeColor=none;fillColor=none;align=center;verticalAlign=middle;whiteSpace=wrap;rounded=0;strokeWidth=1;" vertex="1" parent="1">
          <mxGeometry x="1783.5" y="1426.5" width="23" height="18" as="geometry"/>
        </mxCell>
        <mxCell id="3j5tgYm17wL_fTvZgQFr-307" value="Y" style="ellipse;whiteSpace=wrap;html=1;fillColor=#33FF33;" vertex="1" parent="1">
          <mxGeometry x="1805.5" y="1737.5" width="50" height="50" as="geometry"/>
        </mxCell>
        <mxCell id="3j5tgYm17wL_fTvZgQFr-308" value="" style="endArrow=none;html=1;exitX=1;exitY=0.5;exitDx=0;exitDy=0;entryX=0;entryY=1;entryDx=0;entryDy=0;" edge="1" parent="1" source="3j5tgYm17wL_fTvZgQFr-317" target="3j5tgYm17wL_fTvZgQFr-307">
          <mxGeometry width="50" height="50" relative="1" as="geometry">
            <mxPoint x="1779.177669529664" y="1851.822330470336" as="sourcePoint"/>
            <mxPoint x="1878.5" y="1789" as="targetPoint"/>
          </mxGeometry>
        </mxCell>
        <mxCell id="3j5tgYm17wL_fTvZgQFr-309" value="" style="triangle;whiteSpace=wrap;html=1;fillColor=#FFFF66;rotation=-90;strokeColor=#6c8ebf;" vertex="1" parent="1">
          <mxGeometry x="1919" y="1853.5" width="50" height="50" as="geometry"/>
        </mxCell>
        <mxCell id="3j5tgYm17wL_fTvZgQFr-310" value="T1" style="text;html=1;strokeColor=none;fillColor=none;align=center;verticalAlign=middle;whiteSpace=wrap;rounded=0;strokeWidth=1;" vertex="1" parent="1">
          <mxGeometry x="1932.5" y="1873.5" width="23" height="18" as="geometry"/>
        </mxCell>
        <mxCell id="3j5tgYm17wL_fTvZgQFr-311" value="" style="triangle;whiteSpace=wrap;html=1;fillColor=#FFFF66;rotation=-90;strokeColor=#6c8ebf;" vertex="1" parent="1">
          <mxGeometry x="2019" y="1848.5" width="50" height="50" as="geometry"/>
        </mxCell>
        <mxCell id="3j5tgYm17wL_fTvZgQFr-312" value="T2" style="text;html=1;strokeColor=none;fillColor=none;align=center;verticalAlign=middle;whiteSpace=wrap;rounded=0;strokeWidth=1;" vertex="1" parent="1">
          <mxGeometry x="2032.5" y="1868.5" width="23" height="18" as="geometry"/>
        </mxCell>
        <mxCell id="3j5tgYm17wL_fTvZgQFr-313" value="" style="endArrow=none;html=1;exitX=0.71;exitY=0.03;exitDx=0;exitDy=0;entryX=0;entryY=1;entryDx=0;entryDy=0;exitPerimeter=0;" edge="1" parent="1" source="3j5tgYm17wL_fTvZgQFr-307" target="3j5tgYm17wL_fTvZgQFr-319">
          <mxGeometry width="50" height="50" relative="1" as="geometry">
            <mxPoint x="1868.5" y="1832" as="sourcePoint"/>
            <mxPoint x="1884" y="1852.5" as="targetPoint"/>
          </mxGeometry>
        </mxCell>
        <mxCell id="3j5tgYm17wL_fTvZgQFr-314" value="" style="endArrow=none;html=1;exitX=1;exitY=1;exitDx=0;exitDy=0;" edge="1" parent="1" source="3j5tgYm17wL_fTvZgQFr-319" target="3j5tgYm17wL_fTvZgQFr-320">
          <mxGeometry width="50" height="50" relative="1" as="geometry">
            <mxPoint x="1839.677669529664" y="1714.177669529664" as="sourcePoint"/>
            <mxPoint x="1863.5" y="1755" as="targetPoint"/>
          </mxGeometry>
        </mxCell>
        <mxCell id="3j5tgYm17wL_fTvZgQFr-315" value="" style="endArrow=none;html=1;exitX=1;exitY=0.5;exitDx=0;exitDy=0;" edge="1" parent="1" source="3j5tgYm17wL_fTvZgQFr-309" target="3j5tgYm17wL_fTvZgQFr-320">
          <mxGeometry width="50" height="50" relative="1" as="geometry">
            <mxPoint x="2010.5" y="1774" as="sourcePoint"/>
            <mxPoint x="1983" y="1800.5" as="targetPoint"/>
          </mxGeometry>
        </mxCell>
        <mxCell id="3j5tgYm17wL_fTvZgQFr-316" value="" style="endArrow=none;html=1;exitX=1;exitY=1;exitDx=0;exitDy=0;entryX=1;entryY=0.5;entryDx=0;entryDy=0;" edge="1" parent="1" source="3j5tgYm17wL_fTvZgQFr-320" target="3j5tgYm17wL_fTvZgQFr-311">
          <mxGeometry width="50" height="50" relative="1" as="geometry">
            <mxPoint x="2003" y="1807" as="sourcePoint"/>
            <mxPoint x="2102" y="1779" as="targetPoint"/>
          </mxGeometry>
        </mxCell>
        <mxCell id="3j5tgYm17wL_fTvZgQFr-317" value="" style="triangle;whiteSpace=wrap;html=1;fillColor=#FFFF66;rotation=-90;strokeColor=#6c8ebf;" vertex="1" parent="1">
          <mxGeometry x="1752" y="1848.5" width="50" height="50" as="geometry"/>
        </mxCell>
        <mxCell id="3j5tgYm17wL_fTvZgQFr-318" value="T4" style="text;html=1;strokeColor=none;fillColor=none;align=center;verticalAlign=middle;whiteSpace=wrap;rounded=0;strokeWidth=1;" vertex="1" parent="1">
          <mxGeometry x="1765.5" y="1868.5" width="23" height="18" as="geometry"/>
        </mxCell>
        <mxCell id="3j5tgYm17wL_fTvZgQFr-319" value="X" style="ellipse;whiteSpace=wrap;html=1;fillColor=#FF9999;" vertex="1" parent="1">
          <mxGeometry x="1884" y="1601.5" width="50" height="50" as="geometry"/>
        </mxCell>
        <mxCell id="3j5tgYm17wL_fTvZgQFr-320" value="Z" style="ellipse;whiteSpace=wrap;html=1;fillColor=#FF9999;" vertex="1" parent="1">
          <mxGeometry x="1960" y="1737.5" width="50" height="50" as="geometry"/>
        </mxCell>
        <mxCell id="3j5tgYm17wL_fTvZgQFr-321" value="" style="endArrow=none;html=1;entryX=0;entryY=1;entryDx=0;entryDy=0;exitX=1;exitY=0.5;exitDx=0;exitDy=0;" edge="1" parent="1" source="3j5tgYm17wL_fTvZgQFr-322">
          <mxGeometry width="50" height="50" relative="1" as="geometry">
            <mxPoint x="1708.5" y="1838.5" as="sourcePoint"/>
            <mxPoint x="1866.822330470336" y="1810.677669529664" as="targetPoint"/>
          </mxGeometry>
        </mxCell>
        <mxCell id="3j5tgYm17wL_fTvZgQFr-322" value="" style="triangle;whiteSpace=wrap;html=1;fillColor=#FFFF66;rotation=-90;strokeColor=#6c8ebf;" vertex="1" parent="1">
          <mxGeometry x="1821.5" y="1846.5" width="50" height="50" as="geometry"/>
        </mxCell>
        <mxCell id="3j5tgYm17wL_fTvZgQFr-323" value="T3" style="text;html=1;strokeColor=none;fillColor=none;align=center;verticalAlign=middle;whiteSpace=wrap;rounded=0;strokeWidth=1;" vertex="1" parent="1">
          <mxGeometry x="1835" y="1866.5" width="23" height="18" as="geometry"/>
        </mxCell>
        <mxCell id="3j5tgYm17wL_fTvZgQFr-324" value="Y" style="ellipse;whiteSpace=wrap;html=1;fillColor=#FF9999;" vertex="1" parent="1">
          <mxGeometry x="1393.5" y="1741" width="50" height="50" as="geometry"/>
        </mxCell>
        <mxCell id="3j5tgYm17wL_fTvZgQFr-325" value="" style="endArrow=none;html=1;exitX=1;exitY=0.5;exitDx=0;exitDy=0;entryX=0;entryY=1;entryDx=0;entryDy=0;" edge="1" parent="1" source="3j5tgYm17wL_fTvZgQFr-334" target="3j5tgYm17wL_fTvZgQFr-324">
          <mxGeometry width="50" height="50" relative="1" as="geometry">
            <mxPoint x="1367.177669529664" y="1855.322330470336" as="sourcePoint"/>
            <mxPoint x="1466.5" y="1792.5" as="targetPoint"/>
          </mxGeometry>
        </mxCell>
        <mxCell id="3j5tgYm17wL_fTvZgQFr-326" value="" style="triangle;whiteSpace=wrap;html=1;fillColor=#FFFF66;rotation=-90;strokeColor=#6c8ebf;" vertex="1" parent="1">
          <mxGeometry x="1506" y="1851" width="50" height="50" as="geometry"/>
        </mxCell>
        <mxCell id="3j5tgYm17wL_fTvZgQFr-327" value="T1" style="text;html=1;strokeColor=none;fillColor=none;align=center;verticalAlign=middle;whiteSpace=wrap;rounded=0;strokeWidth=1;" vertex="1" parent="1">
          <mxGeometry x="1519.5" y="1871" width="23" height="18" as="geometry"/>
        </mxCell>
        <mxCell id="3j5tgYm17wL_fTvZgQFr-328" value="" style="triangle;whiteSpace=wrap;html=1;fillColor=#FFFF66;rotation=-90;strokeColor=#6c8ebf;" vertex="1" parent="1">
          <mxGeometry x="1606" y="1846" width="50" height="50" as="geometry"/>
        </mxCell>
        <mxCell id="3j5tgYm17wL_fTvZgQFr-329" value="T2" style="text;html=1;strokeColor=none;fillColor=none;align=center;verticalAlign=middle;whiteSpace=wrap;rounded=0;strokeWidth=1;" vertex="1" parent="1">
          <mxGeometry x="1619.5" y="1866" width="23" height="18" as="geometry"/>
        </mxCell>
        <mxCell id="3j5tgYm17wL_fTvZgQFr-330" value="" style="endArrow=none;html=1;exitX=0.71;exitY=0.03;exitDx=0;exitDy=0;entryX=0;entryY=1;entryDx=0;entryDy=0;exitPerimeter=0;" edge="1" parent="1" source="3j5tgYm17wL_fTvZgQFr-324" target="3j5tgYm17wL_fTvZgQFr-336">
          <mxGeometry width="50" height="50" relative="1" as="geometry">
            <mxPoint x="1456.5" y="1835.5" as="sourcePoint"/>
            <mxPoint x="1472" y="1856" as="targetPoint"/>
          </mxGeometry>
        </mxCell>
        <mxCell id="3j5tgYm17wL_fTvZgQFr-331" value="" style="endArrow=none;html=1;exitX=1;exitY=1;exitDx=0;exitDy=0;" edge="1" parent="1" source="3j5tgYm17wL_fTvZgQFr-336" target="3j5tgYm17wL_fTvZgQFr-337">
          <mxGeometry width="50" height="50" relative="1" as="geometry">
            <mxPoint x="1427.677669529664" y="1717.677669529664" as="sourcePoint"/>
            <mxPoint x="1451.5" y="1758.5" as="targetPoint"/>
          </mxGeometry>
        </mxCell>
        <mxCell id="3j5tgYm17wL_fTvZgQFr-332" value="" style="endArrow=none;html=1;exitX=1;exitY=0.5;exitDx=0;exitDy=0;" edge="1" parent="1" source="3j5tgYm17wL_fTvZgQFr-326" target="3j5tgYm17wL_fTvZgQFr-337">
          <mxGeometry width="50" height="50" relative="1" as="geometry">
            <mxPoint x="1598.5" y="1777.5" as="sourcePoint"/>
            <mxPoint x="1571" y="1804" as="targetPoint"/>
          </mxGeometry>
        </mxCell>
        <mxCell id="3j5tgYm17wL_fTvZgQFr-333" value="" style="endArrow=none;html=1;exitX=1;exitY=1;exitDx=0;exitDy=0;entryX=1;entryY=0.5;entryDx=0;entryDy=0;" edge="1" parent="1" source="3j5tgYm17wL_fTvZgQFr-337" target="3j5tgYm17wL_fTvZgQFr-328">
          <mxGeometry width="50" height="50" relative="1" as="geometry">
            <mxPoint x="1591" y="1810.5" as="sourcePoint"/>
            <mxPoint x="1690" y="1782.5" as="targetPoint"/>
          </mxGeometry>
        </mxCell>
        <mxCell id="3j5tgYm17wL_fTvZgQFr-334" value="" style="triangle;whiteSpace=wrap;html=1;fillColor=#FFFF66;rotation=-90;strokeColor=#6c8ebf;" vertex="1" parent="1">
          <mxGeometry x="1340" y="1852" width="50" height="50" as="geometry"/>
        </mxCell>
        <mxCell id="3j5tgYm17wL_fTvZgQFr-335" value="T4" style="text;html=1;strokeColor=none;fillColor=none;align=center;verticalAlign=middle;whiteSpace=wrap;rounded=0;strokeWidth=1;" vertex="1" parent="1">
          <mxGeometry x="1353.5" y="1872" width="23" height="18" as="geometry"/>
        </mxCell>
        <mxCell id="3j5tgYm17wL_fTvZgQFr-336" value="X" style="ellipse;whiteSpace=wrap;html=1;fillColor=#FF9999;" vertex="1" parent="1">
          <mxGeometry x="1472" y="1605" width="50" height="50" as="geometry"/>
        </mxCell>
        <mxCell id="3j5tgYm17wL_fTvZgQFr-337" value="Z" style="ellipse;whiteSpace=wrap;html=1;fillColor=#FF9999;" vertex="1" parent="1">
          <mxGeometry x="1548" y="1741" width="50" height="50" as="geometry"/>
        </mxCell>
        <mxCell id="3j5tgYm17wL_fTvZgQFr-338" value="" style="endArrow=none;html=1;entryX=1;entryY=1;entryDx=0;entryDy=0;exitX=1;exitY=0.5;exitDx=0;exitDy=0;" edge="1" parent="1" source="3j5tgYm17wL_fTvZgQFr-339" target="3j5tgYm17wL_fTvZgQFr-324">
          <mxGeometry width="50" height="50" relative="1" as="geometry">
            <mxPoint x="1326.5" y="1896" as="sourcePoint"/>
            <mxPoint x="1484.822330470336" y="1868.177669529664" as="targetPoint"/>
          </mxGeometry>
        </mxCell>
        <mxCell id="3j5tgYm17wL_fTvZgQFr-339" value="" style="triangle;whiteSpace=wrap;html=1;fillColor=#FFFF66;rotation=-90;strokeColor=#6c8ebf;" vertex="1" parent="1">
          <mxGeometry x="1438" y="1851" width="50" height="50" as="geometry"/>
        </mxCell>
        <mxCell id="3j5tgYm17wL_fTvZgQFr-340" value="T3" style="text;html=1;strokeColor=none;fillColor=none;align=center;verticalAlign=middle;whiteSpace=wrap;rounded=0;strokeWidth=1;" vertex="1" parent="1">
          <mxGeometry x="1451.5" y="1871" width="23" height="18" as="geometry"/>
        </mxCell>
        <mxCell id="3j5tgYm17wL_fTvZgQFr-341" value="" style="whiteSpace=wrap;html=1;aspect=fixed;fillColor=none;" vertex="1" parent="1">
          <mxGeometry x="1321" y="1161" width="352" height="352" as="geometry"/>
        </mxCell>
        <mxCell id="3j5tgYm17wL_fTvZgQFr-342" value="" style="whiteSpace=wrap;html=1;aspect=fixed;fillColor=none;" vertex="1" parent="1">
          <mxGeometry x="1738" y="1161" width="352" height="352" as="geometry"/>
        </mxCell>
        <mxCell id="3j5tgYm17wL_fTvZgQFr-343" value="" style="whiteSpace=wrap;html=1;aspect=fixed;fillColor=none;" vertex="1" parent="1">
          <mxGeometry x="1739" y="1582.5" width="352" height="352" as="geometry"/>
        </mxCell>
        <mxCell id="3j5tgYm17wL_fTvZgQFr-344" value="" style="whiteSpace=wrap;html=1;aspect=fixed;fillColor=none;" vertex="1" parent="1">
          <mxGeometry x="1321" y="1582.5" width="352" height="352" as="geometry"/>
        </mxCell>
        <mxCell id="3j5tgYm17wL_fTvZgQFr-345" value="" style="whiteSpace=wrap;html=1;aspect=fixed;fillColor=none;" vertex="1" parent="1">
          <mxGeometry x="3532" y="865.5" width="209" height="209" as="geometry"/>
        </mxCell>
        <mxCell id="3j5tgYm17wL_fTvZgQFr-346" value="" style="whiteSpace=wrap;html=1;aspect=fixed;fillColor=none;" vertex="1" parent="1">
          <mxGeometry x="2750" y="860.5" width="209" height="209" as="geometry"/>
        </mxCell>
        <mxCell id="3j5tgYm17wL_fTvZgQFr-347" value="30" style="ellipse;whiteSpace=wrap;html=1;fillColor=#33FF33;" vertex="1" parent="1">
          <mxGeometry x="3252.5" y="884.5" width="50" height="50" as="geometry"/>
        </mxCell>
        <mxCell id="3j5tgYm17wL_fTvZgQFr-348" value="" style="endArrow=none;html=1;exitX=1;exitY=0;exitDx=0;exitDy=0;entryX=0;entryY=1;entryDx=0;entryDy=0;" edge="1" parent="1" source="3j5tgYm17wL_fTvZgQFr-349" target="3j5tgYm17wL_fTvZgQFr-347">
          <mxGeometry width="50" height="50" relative="1" as="geometry">
            <mxPoint x="3245.5" y="981.5" as="sourcePoint"/>
            <mxPoint x="3322.5" y="884.5" as="targetPoint"/>
          </mxGeometry>
        </mxCell>
        <mxCell id="3j5tgYm17wL_fTvZgQFr-349" value="20" style="ellipse;whiteSpace=wrap;html=1;fillColor=#FF9999;" vertex="1" parent="1">
          <mxGeometry x="3180.5" y="940" width="50" height="50" as="geometry"/>
        </mxCell>
        <mxCell id="3j5tgYm17wL_fTvZgQFr-350" value="" style="endArrow=none;html=1;entryX=1;entryY=1;entryDx=0;entryDy=0;exitX=0;exitY=0;exitDx=0;exitDy=0;" edge="1" parent="1" target="3j5tgYm17wL_fTvZgQFr-349" source="3j5tgYm17wL_fTvZgQFr-351">
          <mxGeometry width="50" height="50" relative="1" as="geometry">
            <mxPoint x="3155.5" y="1018.5" as="sourcePoint"/>
            <mxPoint x="3222.5" y="992" as="targetPoint"/>
          </mxGeometry>
        </mxCell>
        <mxCell id="3j5tgYm17wL_fTvZgQFr-351" value="25" style="ellipse;whiteSpace=wrap;html=1;fillColor=#FF9999;" vertex="1" parent="1">
          <mxGeometry x="3239.5" y="1009" width="50" height="50" as="geometry"/>
        </mxCell>
        <mxCell id="3j5tgYm17wL_fTvZgQFr-352" value="&lt;b&gt;2&lt;/b&gt;" style="text;html=1;strokeColor=none;fillColor=none;align=center;verticalAlign=middle;whiteSpace=wrap;rounded=0;" vertex="1" parent="1">
          <mxGeometry x="3224.5" y="874.5" width="40" height="20" as="geometry"/>
        </mxCell>
        <mxCell id="3j5tgYm17wL_fTvZgQFr-353" value="1" style="text;html=1;strokeColor=none;fillColor=none;align=center;verticalAlign=middle;whiteSpace=wrap;rounded=0;fontStyle=1" vertex="1" parent="1">
          <mxGeometry x="3145.5" y="945" width="40" height="20" as="geometry"/>
        </mxCell>
        <mxCell id="3j5tgYm17wL_fTvZgQFr-354" value="0" style="text;html=1;strokeColor=none;fillColor=none;align=center;verticalAlign=middle;whiteSpace=wrap;rounded=0;fontStyle=1" vertex="1" parent="1">
          <mxGeometry x="3205.5" y="1009" width="40" height="20" as="geometry"/>
        </mxCell>
        <mxCell id="3j5tgYm17wL_fTvZgQFr-355" value="30" style="ellipse;whiteSpace=wrap;html=1;fillColor=#FF9999;" vertex="1" parent="1">
          <mxGeometry x="2888" y="909.5" width="50" height="50" as="geometry"/>
        </mxCell>
        <mxCell id="3j5tgYm17wL_fTvZgQFr-356" value="" style="endArrow=none;html=1;exitX=1;exitY=0;exitDx=0;exitDy=0;entryX=0;entryY=1;entryDx=0;entryDy=0;" edge="1" parent="1" source="3j5tgYm17wL_fTvZgQFr-357" target="3j5tgYm17wL_fTvZgQFr-355">
          <mxGeometry width="50" height="50" relative="1" as="geometry">
            <mxPoint x="2805" y="1091.5" as="sourcePoint"/>
            <mxPoint x="2882" y="994.5" as="targetPoint"/>
          </mxGeometry>
        </mxCell>
        <mxCell id="3j5tgYm17wL_fTvZgQFr-357" value="20" style="ellipse;whiteSpace=wrap;html=1;fillColor=#FF9999;" vertex="1" parent="1">
          <mxGeometry x="2785" y="1006.5" width="50" height="50" as="geometry"/>
        </mxCell>
        <mxCell id="3j5tgYm17wL_fTvZgQFr-358" value="&lt;b&gt;1&lt;/b&gt;" style="text;html=1;strokeColor=none;fillColor=none;align=center;verticalAlign=middle;whiteSpace=wrap;rounded=0;" vertex="1" parent="1">
          <mxGeometry x="2860" y="899.5" width="40" height="20" as="geometry"/>
        </mxCell>
        <mxCell id="3j5tgYm17wL_fTvZgQFr-359" value="0" style="text;html=1;strokeColor=none;fillColor=none;align=center;verticalAlign=middle;whiteSpace=wrap;rounded=0;fontStyle=1" vertex="1" parent="1">
          <mxGeometry x="2750" y="1011.5" width="40" height="20" as="geometry"/>
        </mxCell>
        <mxCell id="3j5tgYm17wL_fTvZgQFr-360" value="25" style="ellipse;whiteSpace=wrap;html=1;fillColor=#FF9999;" vertex="1" parent="1">
          <mxGeometry x="2785" y="894" width="50" height="50" as="geometry"/>
        </mxCell>
        <mxCell id="3j5tgYm17wL_fTvZgQFr-361" value="30" style="ellipse;whiteSpace=wrap;html=1;fillColor=#FF9999;" vertex="1" parent="1">
          <mxGeometry x="2497" y="906.5" width="50" height="50" as="geometry"/>
        </mxCell>
        <mxCell id="3j5tgYm17wL_fTvZgQFr-362" value="" style="endArrow=none;html=1;exitX=1;exitY=0;exitDx=0;exitDy=0;entryX=0;entryY=1;entryDx=0;entryDy=0;" edge="1" parent="1" source="3j5tgYm17wL_fTvZgQFr-363" target="3j5tgYm17wL_fTvZgQFr-361">
          <mxGeometry width="50" height="50" relative="1" as="geometry">
            <mxPoint x="2414" y="1088.5" as="sourcePoint"/>
            <mxPoint x="2491" y="991.5" as="targetPoint"/>
          </mxGeometry>
        </mxCell>
        <mxCell id="3j5tgYm17wL_fTvZgQFr-363" value="20" style="ellipse;whiteSpace=wrap;html=1;fillColor=#FF9999;" vertex="1" parent="1">
          <mxGeometry x="2394" y="1003.5" width="50" height="50" as="geometry"/>
        </mxCell>
        <mxCell id="3j5tgYm17wL_fTvZgQFr-364" value="&lt;b&gt;1&lt;/b&gt;" style="text;html=1;strokeColor=none;fillColor=none;align=center;verticalAlign=middle;whiteSpace=wrap;rounded=0;" vertex="1" parent="1">
          <mxGeometry x="2469" y="896.5" width="40" height="20" as="geometry"/>
        </mxCell>
        <mxCell id="3j5tgYm17wL_fTvZgQFr-365" value="0" style="text;html=1;strokeColor=none;fillColor=none;align=center;verticalAlign=middle;whiteSpace=wrap;rounded=0;fontStyle=1" vertex="1" parent="1">
          <mxGeometry x="2359" y="1013.5" width="40" height="20" as="geometry"/>
        </mxCell>
        <mxCell id="3j5tgYm17wL_fTvZgQFr-366" value="" style="shape=singleArrow;whiteSpace=wrap;html=1;fillColor=#66FFFF;" vertex="1" parent="1">
          <mxGeometry x="2603" y="975.5" width="136" height="28" as="geometry"/>
        </mxCell>
        <mxCell id="3j5tgYm17wL_fTvZgQFr-367" value="向树中插入节点25" style="text;html=1;strokeColor=none;fillColor=none;align=center;verticalAlign=middle;whiteSpace=wrap;rounded=0;fontStyle=1" vertex="1" parent="1">
          <mxGeometry x="2609" y="959" width="107" height="6" as="geometry"/>
        </mxCell>
        <mxCell id="3j5tgYm17wL_fTvZgQFr-368" value="" style="shape=singleArrow;whiteSpace=wrap;html=1;fillColor=#66FFFF;" vertex="1" parent="1">
          <mxGeometry x="2989" y="962" width="136" height="28" as="geometry"/>
        </mxCell>
        <mxCell id="3j5tgYm17wL_fTvZgQFr-369" value="引起节点30的平衡因子变成了2" style="text;html=1;strokeColor=none;fillColor=none;align=center;verticalAlign=middle;whiteSpace=wrap;rounded=0;fontStyle=1" vertex="1" parent="1">
          <mxGeometry x="2996" y="929" width="100" height="41" as="geometry"/>
        </mxCell>
        <mxCell id="3j5tgYm17wL_fTvZgQFr-370" value="" style="whiteSpace=wrap;html=1;aspect=fixed;fillColor=none;" vertex="1" parent="1">
          <mxGeometry x="2369" y="860.5" width="209" height="209" as="geometry"/>
        </mxCell>
        <mxCell id="3j5tgYm17wL_fTvZgQFr-372" value="30" style="ellipse;whiteSpace=wrap;html=1;fillColor=#FF9999;" vertex="1" parent="1">
          <mxGeometry x="3581" y="886" width="50" height="50" as="geometry"/>
        </mxCell>
        <mxCell id="3j5tgYm17wL_fTvZgQFr-373" value="" style="endArrow=none;html=1;exitX=0.28;exitY=0.06;exitDx=0;exitDy=0;entryX=1;entryY=1;entryDx=0;entryDy=0;exitPerimeter=0;" edge="1" parent="1" source="3j5tgYm17wL_fTvZgQFr-374" target="3j5tgYm17wL_fTvZgQFr-372">
          <mxGeometry width="50" height="50" relative="1" as="geometry">
            <mxPoint x="3588" y="1079.5" as="sourcePoint"/>
            <mxPoint x="3665" y="982.5" as="targetPoint"/>
          </mxGeometry>
        </mxCell>
        <mxCell id="3j5tgYm17wL_fTvZgQFr-374" value="40" style="ellipse;whiteSpace=wrap;html=1;fillColor=#FF9999;" vertex="1" parent="1">
          <mxGeometry x="3660" y="989.5" width="50" height="50" as="geometry"/>
        </mxCell>
        <mxCell id="3j5tgYm17wL_fTvZgQFr-375" value="&lt;b&gt;1&lt;/b&gt;" style="text;html=1;strokeColor=none;fillColor=none;align=center;verticalAlign=middle;whiteSpace=wrap;rounded=0;" vertex="1" parent="1">
          <mxGeometry x="3625" y="880" width="40" height="20" as="geometry"/>
        </mxCell>
        <mxCell id="3j5tgYm17wL_fTvZgQFr-376" value="0" style="text;html=1;strokeColor=none;fillColor=none;align=center;verticalAlign=middle;whiteSpace=wrap;rounded=0;fontStyle=1" vertex="1" parent="1">
          <mxGeometry x="3701" y="984.5" width="40" height="20" as="geometry"/>
        </mxCell>
        <mxCell id="3j5tgYm17wL_fTvZgQFr-377" value="" style="shape=singleArrow;whiteSpace=wrap;html=1;fillColor=#66FFFF;" vertex="1" parent="1">
          <mxGeometry x="3776" y="980.5" width="136" height="28" as="geometry"/>
        </mxCell>
        <mxCell id="3j5tgYm17wL_fTvZgQFr-378" value="向树中插入节点35" style="text;html=1;strokeColor=none;fillColor=none;align=center;verticalAlign=middle;whiteSpace=wrap;rounded=0;fontStyle=1" vertex="1" parent="1">
          <mxGeometry x="3782" y="964.5" width="105" height="6" as="geometry"/>
        </mxCell>
        <mxCell id="3j5tgYm17wL_fTvZgQFr-379" value="" style="shape=singleArrow;whiteSpace=wrap;html=1;fillColor=#66FFFF;" vertex="1" parent="1">
          <mxGeometry x="4162" y="967" width="136" height="28" as="geometry"/>
        </mxCell>
        <mxCell id="3j5tgYm17wL_fTvZgQFr-380" value="引起节点30的平衡因子变成了2" style="text;html=1;strokeColor=none;fillColor=none;align=center;verticalAlign=middle;whiteSpace=wrap;rounded=0;fontStyle=1" vertex="1" parent="1">
          <mxGeometry x="4169" y="934" width="100" height="41" as="geometry"/>
        </mxCell>
        <mxCell id="3j5tgYm17wL_fTvZgQFr-381" value="" style="whiteSpace=wrap;html=1;aspect=fixed;fillColor=none;" vertex="1" parent="1">
          <mxGeometry x="3924" y="862.5" width="209" height="209" as="geometry"/>
        </mxCell>
        <mxCell id="3j5tgYm17wL_fTvZgQFr-382" value="30" style="ellipse;whiteSpace=wrap;html=1;fillColor=#FF9999;" vertex="1" parent="1">
          <mxGeometry x="3968" y="886" width="50" height="50" as="geometry"/>
        </mxCell>
        <mxCell id="3j5tgYm17wL_fTvZgQFr-383" value="" style="endArrow=none;html=1;exitX=0.28;exitY=0.06;exitDx=0;exitDy=0;entryX=1;entryY=1;entryDx=0;entryDy=0;exitPerimeter=0;" edge="1" parent="1" source="3j5tgYm17wL_fTvZgQFr-384" target="3j5tgYm17wL_fTvZgQFr-382">
          <mxGeometry width="50" height="50" relative="1" as="geometry">
            <mxPoint x="3975" y="1079.5" as="sourcePoint"/>
            <mxPoint x="4052" y="982.5" as="targetPoint"/>
          </mxGeometry>
        </mxCell>
        <mxCell id="3j5tgYm17wL_fTvZgQFr-384" value="40" style="ellipse;whiteSpace=wrap;html=1;fillColor=#FF9999;" vertex="1" parent="1">
          <mxGeometry x="4047" y="989.5" width="50" height="50" as="geometry"/>
        </mxCell>
        <mxCell id="3j5tgYm17wL_fTvZgQFr-385" value="&lt;b&gt;1&lt;/b&gt;" style="text;html=1;strokeColor=none;fillColor=none;align=center;verticalAlign=middle;whiteSpace=wrap;rounded=0;" vertex="1" parent="1">
          <mxGeometry x="4012" y="880" width="40" height="20" as="geometry"/>
        </mxCell>
        <mxCell id="3j5tgYm17wL_fTvZgQFr-386" value="0" style="text;html=1;strokeColor=none;fillColor=none;align=center;verticalAlign=middle;whiteSpace=wrap;rounded=0;fontStyle=1" vertex="1" parent="1">
          <mxGeometry x="4088" y="984.5" width="40" height="20" as="geometry"/>
        </mxCell>
        <mxCell id="3j5tgYm17wL_fTvZgQFr-387" value="35" style="ellipse;whiteSpace=wrap;html=1;fillColor=#FF9999;" vertex="1" parent="1">
          <mxGeometry x="3949" y="1000.5" width="50" height="50" as="geometry"/>
        </mxCell>
        <mxCell id="3j5tgYm17wL_fTvZgQFr-388" value="" style="whiteSpace=wrap;html=1;aspect=fixed;fillColor=none;" vertex="1" parent="1">
          <mxGeometry x="4330" y="860" width="209" height="209" as="geometry"/>
        </mxCell>
        <mxCell id="3j5tgYm17wL_fTvZgQFr-389" value="30" style="ellipse;whiteSpace=wrap;html=1;fillColor=#33FF33;" vertex="1" parent="1">
          <mxGeometry x="4367.5" y="875.5" width="50" height="50" as="geometry"/>
        </mxCell>
        <mxCell id="3j5tgYm17wL_fTvZgQFr-390" value="" style="endArrow=none;html=1;exitX=0.28;exitY=0.06;exitDx=0;exitDy=0;entryX=1;entryY=1;entryDx=0;entryDy=0;exitPerimeter=0;" edge="1" parent="1" source="3j5tgYm17wL_fTvZgQFr-391" target="3j5tgYm17wL_fTvZgQFr-389">
          <mxGeometry width="50" height="50" relative="1" as="geometry">
            <mxPoint x="4364" y="1067" as="sourcePoint"/>
            <mxPoint x="4441" y="970" as="targetPoint"/>
          </mxGeometry>
        </mxCell>
        <mxCell id="3j5tgYm17wL_fTvZgQFr-391" value="40" style="ellipse;whiteSpace=wrap;html=1;fillColor=#FF9999;" vertex="1" parent="1">
          <mxGeometry x="4437" y="944.5" width="50" height="50" as="geometry"/>
        </mxCell>
        <mxCell id="3j5tgYm17wL_fTvZgQFr-392" value="&lt;b&gt;2&lt;/b&gt;" style="text;html=1;strokeColor=none;fillColor=none;align=center;verticalAlign=middle;whiteSpace=wrap;rounded=0;" vertex="1" parent="1">
          <mxGeometry x="4401" y="867.5" width="40" height="20" as="geometry"/>
        </mxCell>
        <mxCell id="3j5tgYm17wL_fTvZgQFr-393" value="1" style="text;html=1;strokeColor=none;fillColor=none;align=center;verticalAlign=middle;whiteSpace=wrap;rounded=0;fontStyle=1" vertex="1" parent="1">
          <mxGeometry x="4462" y="922" width="40" height="20" as="geometry"/>
        </mxCell>
        <mxCell id="3j5tgYm17wL_fTvZgQFr-394" value="35" style="ellipse;whiteSpace=wrap;html=1;fillColor=#FF9999;" vertex="1" parent="1">
          <mxGeometry x="4381.5" y="1017" width="50" height="50" as="geometry"/>
        </mxCell>
        <mxCell id="3j5tgYm17wL_fTvZgQFr-395" value="0" style="text;html=1;strokeColor=none;fillColor=none;align=center;verticalAlign=middle;whiteSpace=wrap;rounded=0;fontStyle=1" vertex="1" parent="1">
          <mxGeometry x="4421" y="1016" width="40" height="20" as="geometry"/>
        </mxCell>
        <mxCell id="3j5tgYm17wL_fTvZgQFr-396" value="" style="endArrow=none;html=1;exitX=0;exitY=0.25;exitDx=0;exitDy=0;entryX=0;entryY=1;entryDx=0;entryDy=0;" edge="1" parent="1" source="3j5tgYm17wL_fTvZgQFr-395" target="3j5tgYm17wL_fTvZgQFr-391">
          <mxGeometry width="50" height="50" relative="1" as="geometry">
            <mxPoint x="4355.5" y="955.5" as="sourcePoint"/>
            <mxPoint x="4447.5" y="985.5" as="targetPoint"/>
          </mxGeometry>
        </mxCell>
        <mxCell id="3j5tgYm17wL_fTvZgQFr-397" value="" style="whiteSpace=wrap;html=1;aspect=fixed;fillColor=none;" vertex="1" parent="1">
          <mxGeometry x="2369" y="1226.5" width="209" height="209" as="geometry"/>
        </mxCell>
        <mxCell id="3j5tgYm17wL_fTvZgQFr-398" value="30" style="ellipse;whiteSpace=wrap;html=1;fillColor=#33FF33;" vertex="1" parent="1">
          <mxGeometry x="2481.5" y="1248" width="50" height="50" as="geometry"/>
        </mxCell>
        <mxCell id="3j5tgYm17wL_fTvZgQFr-399" value="" style="endArrow=none;html=1;exitX=1;exitY=0;exitDx=0;exitDy=0;entryX=0;entryY=1;entryDx=0;entryDy=0;" edge="1" parent="1" source="3j5tgYm17wL_fTvZgQFr-400" target="3j5tgYm17wL_fTvZgQFr-398">
          <mxGeometry width="50" height="50" relative="1" as="geometry">
            <mxPoint x="2474.5" y="1345" as="sourcePoint"/>
            <mxPoint x="2551.5" y="1248" as="targetPoint"/>
          </mxGeometry>
        </mxCell>
        <mxCell id="3j5tgYm17wL_fTvZgQFr-400" value="20" style="ellipse;whiteSpace=wrap;html=1;fillColor=#FF9999;" vertex="1" parent="1">
          <mxGeometry x="2409.5" y="1303.5" width="50" height="50" as="geometry"/>
        </mxCell>
        <mxCell id="3j5tgYm17wL_fTvZgQFr-401" value="" style="endArrow=none;html=1;entryX=1;entryY=1;entryDx=0;entryDy=0;exitX=0;exitY=0;exitDx=0;exitDy=0;" edge="1" parent="1" source="3j5tgYm17wL_fTvZgQFr-402" target="3j5tgYm17wL_fTvZgQFr-400">
          <mxGeometry width="50" height="50" relative="1" as="geometry">
            <mxPoint x="2384.5" y="1382" as="sourcePoint"/>
            <mxPoint x="2451.5" y="1355.5" as="targetPoint"/>
          </mxGeometry>
        </mxCell>
        <mxCell id="3j5tgYm17wL_fTvZgQFr-402" value="25" style="ellipse;whiteSpace=wrap;html=1;fillColor=#FF9999;" vertex="1" parent="1">
          <mxGeometry x="2468.5" y="1372.5" width="50" height="50" as="geometry"/>
        </mxCell>
        <mxCell id="3j5tgYm17wL_fTvZgQFr-403" value="&lt;b&gt;2&lt;/b&gt;" style="text;html=1;strokeColor=none;fillColor=none;align=center;verticalAlign=middle;whiteSpace=wrap;rounded=0;" vertex="1" parent="1">
          <mxGeometry x="2453.5" y="1238" width="40" height="20" as="geometry"/>
        </mxCell>
        <mxCell id="3j5tgYm17wL_fTvZgQFr-404" value="1" style="text;html=1;strokeColor=none;fillColor=none;align=center;verticalAlign=middle;whiteSpace=wrap;rounded=0;fontStyle=1" vertex="1" parent="1">
          <mxGeometry x="2374.5" y="1308.5" width="40" height="20" as="geometry"/>
        </mxCell>
        <mxCell id="3j5tgYm17wL_fTvZgQFr-405" value="0" style="text;html=1;strokeColor=none;fillColor=none;align=center;verticalAlign=middle;whiteSpace=wrap;rounded=0;fontStyle=1" vertex="1" parent="1">
          <mxGeometry x="2434.5" y="1372.5" width="40" height="20" as="geometry"/>
        </mxCell>
        <mxCell id="3j5tgYm17wL_fTvZgQFr-406" value="" style="whiteSpace=wrap;html=1;aspect=fixed;fillColor=none;" vertex="1" parent="1">
          <mxGeometry x="2731.5" y="1224.5" width="209" height="209" as="geometry"/>
        </mxCell>
        <mxCell id="3j5tgYm17wL_fTvZgQFr-407" value="30" style="ellipse;whiteSpace=wrap;html=1;fillColor=#33FF33;" vertex="1" parent="1">
          <mxGeometry x="2876" y="1245" width="50" height="50" as="geometry"/>
        </mxCell>
        <mxCell id="3j5tgYm17wL_fTvZgQFr-408" value="" style="endArrow=none;html=1;exitX=1;exitY=0;exitDx=0;exitDy=0;entryX=0;entryY=1;entryDx=0;entryDy=0;" edge="1" parent="1" target="3j5tgYm17wL_fTvZgQFr-407">
          <mxGeometry width="50" height="50" relative="1" as="geometry">
            <mxPoint x="2846.677669529664" y="1307.822330470336" as="sourcePoint"/>
            <mxPoint x="2946" y="1245" as="targetPoint"/>
          </mxGeometry>
        </mxCell>
        <mxCell id="3j5tgYm17wL_fTvZgQFr-410" value="" style="endArrow=none;html=1;entryX=0;entryY=1;entryDx=0;entryDy=0;" edge="1" parent="1" source="3j5tgYm17wL_fTvZgQFr-415" target="3j5tgYm17wL_fTvZgQFr-417">
          <mxGeometry width="50" height="50" relative="1" as="geometry">
            <mxPoint x="2870.322330470336" y="1376.822330470336" as="sourcePoint"/>
            <mxPoint x="2846.677669529664" y="1343.177669529664" as="targetPoint"/>
          </mxGeometry>
        </mxCell>
        <mxCell id="3j5tgYm17wL_fTvZgQFr-412" value="&lt;b&gt;2&lt;/b&gt;" style="text;html=1;strokeColor=none;fillColor=none;align=center;verticalAlign=middle;whiteSpace=wrap;rounded=0;" vertex="1" parent="1">
          <mxGeometry x="2848" y="1235" width="40" height="20" as="geometry"/>
        </mxCell>
        <mxCell id="3j5tgYm17wL_fTvZgQFr-415" value="20" style="ellipse;whiteSpace=wrap;html=1;fillColor=#FF9999;" vertex="1" parent="1">
          <mxGeometry x="2751" y="1371.5" width="50" height="50" as="geometry"/>
        </mxCell>
        <mxCell id="3j5tgYm17wL_fTvZgQFr-416" value="0" style="text;html=1;strokeColor=none;fillColor=none;align=center;verticalAlign=middle;whiteSpace=wrap;rounded=0;fontStyle=1" vertex="1" parent="1">
          <mxGeometry x="2716" y="1376.5" width="40" height="20" as="geometry"/>
        </mxCell>
        <mxCell id="3j5tgYm17wL_fTvZgQFr-417" value="25" style="ellipse;whiteSpace=wrap;html=1;fillColor=#FF9999;" vertex="1" parent="1">
          <mxGeometry x="2801" y="1301" width="50" height="50" as="geometry"/>
        </mxCell>
        <mxCell id="3j5tgYm17wL_fTvZgQFr-418" value="1" style="text;html=1;strokeColor=none;fillColor=none;align=center;verticalAlign=middle;whiteSpace=wrap;rounded=0;fontStyle=1" vertex="1" parent="1">
          <mxGeometry x="2767" y="1301" width="40" height="20" as="geometry"/>
        </mxCell>
        <mxCell id="3j5tgYm17wL_fTvZgQFr-420" value="" style="shape=singleArrow;whiteSpace=wrap;html=1;fillColor=#66FFFF;" vertex="1" parent="1">
          <mxGeometry x="2587.5" y="1332.5" width="136" height="28" as="geometry"/>
        </mxCell>
        <mxCell id="3j5tgYm17wL_fTvZgQFr-421" value="引起不平衡的节点的左孩子做一次左旋操作其实就变成了LL的情况" style="text;html=1;strokeColor=none;fillColor=none;align=center;verticalAlign=middle;whiteSpace=wrap;rounded=0;fontStyle=1" vertex="1" parent="1">
          <mxGeometry x="2594" y="1234" width="111" height="142" as="geometry"/>
        </mxCell>
        <mxCell id="3j5tgYm17wL_fTvZgQFr-422" value="" style="whiteSpace=wrap;html=1;aspect=fixed;fillColor=none;" vertex="1" parent="1">
          <mxGeometry x="3532" y="1226.5" width="209" height="209" as="geometry"/>
        </mxCell>
        <mxCell id="3j5tgYm17wL_fTvZgQFr-423" value="30" style="ellipse;whiteSpace=wrap;html=1;fillColor=#33FF33;" vertex="1" parent="1">
          <mxGeometry x="3569.5" y="1242" width="50" height="50" as="geometry"/>
        </mxCell>
        <mxCell id="3j5tgYm17wL_fTvZgQFr-424" value="" style="endArrow=none;html=1;exitX=0.28;exitY=0.06;exitDx=0;exitDy=0;entryX=1;entryY=1;entryDx=0;entryDy=0;exitPerimeter=0;" edge="1" parent="1" source="3j5tgYm17wL_fTvZgQFr-425" target="3j5tgYm17wL_fTvZgQFr-423">
          <mxGeometry width="50" height="50" relative="1" as="geometry">
            <mxPoint x="3566" y="1433.5" as="sourcePoint"/>
            <mxPoint x="3643" y="1336.5" as="targetPoint"/>
          </mxGeometry>
        </mxCell>
        <mxCell id="3j5tgYm17wL_fTvZgQFr-425" value="40" style="ellipse;whiteSpace=wrap;html=1;fillColor=#FF9999;" vertex="1" parent="1">
          <mxGeometry x="3639" y="1311" width="50" height="50" as="geometry"/>
        </mxCell>
        <mxCell id="3j5tgYm17wL_fTvZgQFr-426" value="&lt;b&gt;2&lt;/b&gt;" style="text;html=1;strokeColor=none;fillColor=none;align=center;verticalAlign=middle;whiteSpace=wrap;rounded=0;" vertex="1" parent="1">
          <mxGeometry x="3603" y="1234" width="40" height="20" as="geometry"/>
        </mxCell>
        <mxCell id="3j5tgYm17wL_fTvZgQFr-427" value="1" style="text;html=1;strokeColor=none;fillColor=none;align=center;verticalAlign=middle;whiteSpace=wrap;rounded=0;fontStyle=1" vertex="1" parent="1">
          <mxGeometry x="3664" y="1288.5" width="40" height="20" as="geometry"/>
        </mxCell>
        <mxCell id="3j5tgYm17wL_fTvZgQFr-428" value="35" style="ellipse;whiteSpace=wrap;html=1;fillColor=#FF9999;" vertex="1" parent="1">
          <mxGeometry x="3583.5" y="1383.5" width="50" height="50" as="geometry"/>
        </mxCell>
        <mxCell id="3j5tgYm17wL_fTvZgQFr-429" value="0" style="text;html=1;strokeColor=none;fillColor=none;align=center;verticalAlign=middle;whiteSpace=wrap;rounded=0;fontStyle=1" vertex="1" parent="1">
          <mxGeometry x="3623" y="1382.5" width="40" height="20" as="geometry"/>
        </mxCell>
        <mxCell id="3j5tgYm17wL_fTvZgQFr-430" value="" style="endArrow=none;html=1;exitX=0;exitY=0.25;exitDx=0;exitDy=0;entryX=0;entryY=1;entryDx=0;entryDy=0;" edge="1" parent="1" source="3j5tgYm17wL_fTvZgQFr-429" target="3j5tgYm17wL_fTvZgQFr-425">
          <mxGeometry width="50" height="50" relative="1" as="geometry">
            <mxPoint x="3557.5" y="1322" as="sourcePoint"/>
            <mxPoint x="3649.5" y="1352" as="targetPoint"/>
          </mxGeometry>
        </mxCell>
        <mxCell id="3j5tgYm17wL_fTvZgQFr-431" value="" style="shape=singleArrow;whiteSpace=wrap;html=1;fillColor=#66FFFF;" vertex="1" parent="1">
          <mxGeometry x="3766.5" y="1333.5" width="136" height="28" as="geometry"/>
        </mxCell>
        <mxCell id="3j5tgYm17wL_fTvZgQFr-432" value="引起不平衡的节点的右孩子做一次右旋操作其实就变成了RR的情况" style="text;html=1;strokeColor=none;fillColor=none;align=center;verticalAlign=middle;whiteSpace=wrap;rounded=0;fontStyle=1" vertex="1" parent="1">
          <mxGeometry x="3773" y="1235" width="111" height="142" as="geometry"/>
        </mxCell>
        <mxCell id="3j5tgYm17wL_fTvZgQFr-433" value="" style="whiteSpace=wrap;html=1;aspect=fixed;fillColor=none;" vertex="1" parent="1">
          <mxGeometry x="3932" y="1229" width="209" height="209" as="geometry"/>
        </mxCell>
        <mxCell id="3j5tgYm17wL_fTvZgQFr-434" value="30" style="ellipse;whiteSpace=wrap;html=1;fillColor=#33FF33;" vertex="1" parent="1">
          <mxGeometry x="3942" y="1243.5" width="50" height="50" as="geometry"/>
        </mxCell>
        <mxCell id="3j5tgYm17wL_fTvZgQFr-435" value="" style="endArrow=none;html=1;exitX=0.28;exitY=0.06;exitDx=0;exitDy=0;entryX=1;entryY=1;entryDx=0;entryDy=0;exitPerimeter=0;" edge="1" parent="1" source="3j5tgYm17wL_fTvZgQFr-436" target="3j5tgYm17wL_fTvZgQFr-434">
          <mxGeometry width="50" height="50" relative="1" as="geometry">
            <mxPoint x="3938.5" y="1435" as="sourcePoint"/>
            <mxPoint x="4015.5" y="1338" as="targetPoint"/>
          </mxGeometry>
        </mxCell>
        <mxCell id="3j5tgYm17wL_fTvZgQFr-436" value="35" style="ellipse;whiteSpace=wrap;html=1;fillColor=#FF9999;" vertex="1" parent="1">
          <mxGeometry x="4011.5" y="1312.5" width="50" height="50" as="geometry"/>
        </mxCell>
        <mxCell id="3j5tgYm17wL_fTvZgQFr-437" value="&lt;b&gt;2&lt;/b&gt;" style="text;html=1;strokeColor=none;fillColor=none;align=center;verticalAlign=middle;whiteSpace=wrap;rounded=0;" vertex="1" parent="1">
          <mxGeometry x="3975.5" y="1235.5" width="40" height="20" as="geometry"/>
        </mxCell>
        <mxCell id="3j5tgYm17wL_fTvZgQFr-438" value="1" style="text;html=1;strokeColor=none;fillColor=none;align=center;verticalAlign=middle;whiteSpace=wrap;rounded=0;fontStyle=1" vertex="1" parent="1">
          <mxGeometry x="4036.5" y="1290" width="40" height="20" as="geometry"/>
        </mxCell>
        <mxCell id="3j5tgYm17wL_fTvZgQFr-439" value="40" style="ellipse;whiteSpace=wrap;html=1;fillColor=#FF9999;" vertex="1" parent="1">
          <mxGeometry x="4069" y="1383" width="50" height="50" as="geometry"/>
        </mxCell>
        <mxCell id="3j5tgYm17wL_fTvZgQFr-440" value="0" style="text;html=1;strokeColor=none;fillColor=none;align=center;verticalAlign=middle;whiteSpace=wrap;rounded=0;fontStyle=1" vertex="1" parent="1">
          <mxGeometry x="4109.5" y="1382.5" width="39" height="20" as="geometry"/>
        </mxCell>
        <mxCell id="3j5tgYm17wL_fTvZgQFr-441" value="" style="endArrow=none;html=1;exitX=0.33;exitY=0.07;exitDx=0;exitDy=0;entryX=1;entryY=1;entryDx=0;entryDy=0;exitPerimeter=0;" edge="1" parent="1" source="3j5tgYm17wL_fTvZgQFr-439" target="3j5tgYm17wL_fTvZgQFr-436">
          <mxGeometry width="50" height="50" relative="1" as="geometry">
            <mxPoint x="3930" y="1323.5" as="sourcePoint"/>
            <mxPoint x="4022" y="1353.5" as="targetPoint"/>
          </mxGeometry>
        </mxCell>
        <mxCell id="3j5tgYm17wL_fTvZgQFr-442" value="RL" style="text;html=1;strokeColor=none;fillColor=none;align=center;verticalAlign=middle;whiteSpace=wrap;rounded=0;fontStyle=1;direction=south;" vertex="1" parent="1">
          <mxGeometry x="3628.5" y="1209.5" width="29" height="15" as="geometry"/>
        </mxCell>
        <mxCell id="3j5tgYm17wL_fTvZgQFr-445" value="RL" style="text;html=1;strokeColor=none;fillColor=none;align=center;verticalAlign=middle;whiteSpace=wrap;rounded=0;fontStyle=1;direction=south;" vertex="1" parent="1">
          <mxGeometry x="4022" y="1210.5" width="29" height="15" as="geometry"/>
        </mxCell>
        <mxCell id="3j5tgYm17wL_fTvZgQFr-449" value="LL" style="text;html=1;strokeColor=none;fillColor=none;align=center;verticalAlign=middle;whiteSpace=wrap;rounded=0;fontStyle=1;direction=south;" vertex="1" parent="1">
          <mxGeometry x="873" y="850.5" width="29" height="15" as="geometry"/>
        </mxCell>
      </root>
    </mxGraphModel>
  </diagram>
</mxfile>
